<svg xmlns="http://www.w3.org/2000/svg" width="50" height="50" viewBox="0 0 50 50" xmlns:xlink="http://www.w3.org/1999/xlink"><defs><path id="b" d="M46 16c0 2.2-1.8 4-4 4-.36 0-.7-.04-1.02-.14l-7.12 7.1c.1.32.14.68.14 1.04 0 2.2-1.8 4-4 4s-4-1.8-4-4c0-.36.04-.72.14-1.04l-5.1-5.1c-.32.1-.68.14-1.04.14s-.72-.04-1.04-.14l-9.1 9.12c.1.32.14.66.14 1.02 0 2.2-1.8 4-4 4s-4-1.8-4-4 1.8-4 4-4c.36 0 .7.04 1.02.14l9.12-9.1c-.1-.32-.14-.68-.14-1.04 0-2.2 1.8-4 4-4s4 1.8 4 4c0 .36-.04.72-.14 1.04l5.1 5.1c.32-.1.68-.14 1.04-.14s.72.04 1.04.14l7.1-7.12c-.1-.32-.14-.66-.14-1.02 0-2.2 1.8-4 4-4s4 1.8 4 4z"/><filter id="a" width="200%" height="200%" x="-50%" y="-50%" filterUnits="objectBoundingBox"><feOffset dy="2" in="SourceAlpha" result="shadowOffsetOuter1"/><feGaussianBlur stdDeviation="1" in="shadowOffsetOuter1" result="shadowBlurOuter1"/><feColorMatrix values="0 0 0 0 0 0 0 0 0 0 0 0 0 0 0 0 0 0 0.1 0" in="shadowBlurOuter1"/></filter></defs><g fill="none" fill-rule="evenodd" transform="translate(1 1)"><path stroke="#000" stroke-opacity=".008" stroke-width=".5" d="M0 0h48v48H0z"/><use fill="#000" filter="url(#a)" xlink:href="#b"/><use fill="#FFF" xlink:href="#b"/></g></svg>