<svg width="31" height="36" viewBox="0 0 31 36" xmlns="http://www.w3.org/2000/svg"><title>feat-icon-security</title><g stroke="#788895" fill="#F3F4F7" fill-rule="evenodd"><path d="M26.733 14.524H4.327L2.294 16.19v16.258l2.033 1.811h22.406l1.875-1.811V16.19l-1.875-1.666z" stroke-width="1.5"/><path d="M16.45 26.4a2.386 2.386 0 0 0 1.675-2.292c0-1.32-1.05-2.391-2.345-2.391-1.296 0-2.346 1.07-2.346 2.39 0 1.113.746 2.048 1.755 2.315v3.89h1.26V26.4z" stroke-linejoin="round"/><path d="M26.733 14.524H4.327L2.294 16.19l2.033 1.623h22.406l1.875-1.623-1.875-1.666z" stroke-linecap="square" stroke-linejoin="bevel"/><path d="M5.583 15.758v-4.586C5.583 5.394 10.295.71 16.109.71c5.813 0 10.525 4.685 10.525 10.463v4.586c0 .973-3.947.833-3.947 0v-4.763c0-3.617-2.945-6.55-6.578-6.55-3.634 0-6.579 2.933-6.579 6.55v4.763c0 .973-3.947.973-3.947 0z"/></g></svg>