<svg width="41" height="28" viewBox="0 0 41 28" xmlns="http://www.w3.org/2000/svg"><title>feat-icon-analytics</title><g stroke="#788895" fill="#F3F4F7" fill-rule="evenodd"><path d="M12.092 5.48l7.588-4.315c.637-.362 1.674-.363 2.315 0l8.146 4.314v11.518l-8.146 4.206c-.64.353-1.682.351-2.325-.005l-7.569-4.196c-.646-.358-.647-11.16-.01-11.523z" stroke-width="1.28"/><path d="M22.567.977C21.61.436 20.058.44 19.088.99l-6.404 3.642c-.965.548-.97 1.423 0 1.961l6.404 3.55c.965.535 2.527.538 3.502 0l6.435-3.55c.969-.535.974-1.41.022-1.949L22.567.977z" stroke-width="1.28"/><path d="M1.012 22.623l7.57 4.196c.642.357 1.684.359 2.324.006l7.993-4.612V6.41l-7.993-4.734c-.64-.363-1.678-.362-2.315 0L.584 6.41l.428 16.213z" stroke-width="1.28"/><path d="M11.478 1.7c-.957-.54-2.509-.538-3.479.014L1.595 5.355c-.965.549-.97 1.424 0 1.962l6.404 3.55c.965.535 2.527.538 3.502 0l6.435-3.55c.969-.535.974-1.41.022-1.95l-6.48-3.666zM22.666 23.13l7.953 4.2c.643.357 1.685.359 2.324.006l7.906-4.513v-5.701l-7.906-4.714c-.64-.363-1.678-.362-2.315 0l-7.962 5.073v5.648z" stroke-width="1.28"/><path d="M34.015 13.014c-1.233-.698-3.235-.692-4.453 0l-5.456 3.102c-1.226.697-1.217 1.819.025 2.508l5.406 2.996c1.24.688 3.254.69 4.49.007l5.457-3.01c1.24-.684 1.254-1.799.012-2.501l-5.481-3.102z" stroke-width="1.28"/><path d="M9.65 12.013v13.836M20.598 11.488v9.25M32.068 23.092v3.268" stroke-linecap="square"/></g></svg>