<svg width="35" height="37" viewBox="0 0 35 37" xmlns="http://www.w3.org/2000/svg"><title>feat-icon-ranking</title><g stroke="#788895" fill="#F3F4F7" fill-rule="evenodd"><path stroke-width="2" d="M15.675 19.835h3.662v7.4h-3.662z"/><path d="M28.234 2.454c.029-.678.041-1.266.041-1.727H6.963c0 .46.012 1.049.04 1.729l-.184-.004c-3.09-.054-5.642 2.626-5.7 5.985-.06 3.36 2.398 6.127 5.487 6.18l2.616.046c1.792 3.682 4.085 6.761 8.285 6.761 4.202 0 7.163-2.983 8.737-6.766l2.328-.04c3.09-.055 5.546-2.822 5.488-6.181-.06-3.36-2.611-6.04-5.7-5.985l-.126.002zM28.1 4.738c-.185 2.414-.532 5.276-1.12 7.625l1.648-.028c1.933-.034 3.471-1.764 3.435-3.863-.037-2.1-1.634-3.775-3.568-3.74l-.395.006zM7.145 4.74c.196 2.423.57 5.296 1.23 7.627l-1.824-.032c-1.933-.034-3.471-1.763-3.435-3.863.037-2.1 1.634-3.774 3.568-3.74l.461.008zM25.023 27.91h1.286l2.688 2.19h.07v5.637H6.174v-5.636h.071l2.688-2.19h1.265c.765-.904 2.767-1.627 4.432-2.211l1.434-1.621s.387.433 1.556.433c1.168 0 1.644-.433 1.644-.433l1.29 1.62c1.656.469 3.682 1.297 4.47 2.211z" stroke-width="1.4" stroke-linejoin="round"/><path stroke-width=".5" stroke-linecap="square" d="M7.205 30.474h21.831"/><path stroke-width=".8" d="M18.1 12.093l-3.406 1.57.65-3.324-2.755-2.355 3.807-.484L18.1 4.475 19.802 7.5l3.807.484-2.755 2.355.65 3.324z"/><path d="M10.77 28.332s.703.754 6.71.754 7.321-.754 7.321-.754M6.498 30.624H28.47" stroke-linecap="square"/></g></svg>