<svg width="32" height="34" viewBox="0 0 32 34" xmlns="http://www.w3.org/2000/svg"><title>feat-icon-facets</title><g stroke="#788895" fill="#F3F4F7" fill-rule="evenodd"><path d="M31.216 21.854l-5.679 7.771-9.187 2.968-9.188-2.968-5.679-7.77v-9.606l5.679-7.772L16.35 1.51l9.187 2.968 5.68 7.772v9.605z" stroke-width="1.5"/><path d="M10.191 25.327L6.574 14.1l9.47-6.94 9.47 6.94-3.617 11.227H10.191zM25.893 14.023l5.323-1.683-5.679-7.837-9.187-2.994V7.07" stroke-width="1.024"/><path d="M22.052 25.167l3.361 4.6 5.803-7.853v-9.707l-5.44 1.687-3.724 11.273z" stroke-width="1.024"/><path d="M22.233 25.327l3.281 4.398-9.164 2.868-9.165-2.868 3.281-4.398h11.767z" stroke-width="1.024"/><path d="M6.923 13.894l-5.44-1.687v9.707l5.803 7.853 3.361-4.6-3.724-11.273z" stroke-width="1.024"/></g></svg>