<svg width="29" height="28" viewBox="0 0 29 28" xmlns="http://www.w3.org/2000/svg"><title>feat-icon-indexing</title><g transform="translate(1 1)" stroke="#788895" fill="#F3F4F7" fill-rule="evenodd"><path d="M26.923 17.382c0-2.335-6.027-4.229-13.462-4.229C6.027 13.153 0 15.047 0 17.383v4.228c0 2.335 6.027 4.229 13.461 4.229 7.435 0 13.462-1.894 13.462-4.23v-4.228z" stroke-width="1.6"/><ellipse stroke-width="1.6" cx="13.461" cy="17.26" rx="13.099" ry="4.115"/><path d="M26.923 17.382c0-2.335-6.027-4.229-13.462-4.229C6.027 13.153 0 15.047 0 17.383v4.228c0 2.335 6.027 4.229 13.461 4.229 7.435 0 13.462-1.894 13.462-4.23v-4.228z" stroke-width="1.6"/><ellipse stroke-width=".8" cx="13.461" cy="17.378" rx="13.335" ry="4.189"/><path d="M26.923 10.94c0-2.336-6.027-4.23-13.462-4.23C6.027 6.71 0 8.605 0 10.94v4.228c0 2.336 6.027 4.23 13.461 4.23 7.435 0 13.462-1.894 13.462-4.23V10.94z" stroke-width="1.6"/><ellipse stroke-width=".8" cx="13.461" cy="10.936" rx="13.335" ry="4.189"/><path d="M26.923 4.229C26.923 1.893 20.896 0 13.461 0 6.027 0 0 1.893 0 4.229v4.229c0 2.335 6.027 4.228 13.461 4.228 7.435 0 13.462-1.893 13.462-4.228v-4.23z" stroke-width="1.6"/><ellipse stroke-width=".8" cx="13.461" cy="4.225" rx="13.335" ry="4.189"/></g></svg>