<svg width="24" height="31" viewBox="0 0 24 31" xmlns="http://www.w3.org/2000/svg"><title>feat-icon-typo</title><g stroke="#788895" fill="none" fill-rule="evenodd"><path d="M15.853 19.636h-7.36v-.756c.384-.14.772-.261 1.165-.366.393-.104.817-.19 1.27-.26V2.73H6.922L5.533 6.462h-.655a17.017 17.017 0 0 1-.131-1.187 77.995 77.995 0 0 1-.157-2.713c-.018-.444-.026-.84-.026-1.187h15.218c0 .348-.009.74-.026 1.174-.018.435-.04.882-.066 1.343l-.078 1.357c-.027.443-.066.848-.118 1.213h-.681l-1.362-3.73h-4.008v15.522c.454.087.878.173 1.27.26.393.087.773.21 1.14.366v.756z" stroke-width="1.3"/><path d="M1.395 30s1.072-3.222 3.437-3.222c2.365 0 2.365 3.222 4.73 3.222 2.366 0 2.366-3.222 4.731-3.222 2.365 0 2.365 3.222 4.73 3.222 2.366 0 3.76-3.222 3.76-3.222" stroke-width="1.5" stroke-linecap="square"/></g></svg>