<?xml version="1.0" encoding="UTF-8" standalone="no"?>
<svg width="44px" height="44px" viewBox="0 0 44 44" version="1.1" xmlns="http://www.w3.org/2000/svg" xmlns:xlink="http://www.w3.org/1999/xlink">
    <!-- Generator: sketchtool 39.1 (31720) - http://www.bohemiancoding.com/sketch -->
    <title>DCB1B83E-8B0F-4BC9-B798-AFDA560B599A</title>
    <desc>Created with sketchtool.</desc>
    <defs></defs>
    <g id="Page-2" stroke="none" stroke-width="1" fill="none" fill-rule="evenodd" opacity="0.699999988">
        <g id="wordpress-landing-copy" transform="translate(-154.000000, -1104.000000)" stroke-width="1.3" stroke="#697782">
            <g id="Group-28" transform="translate(150.000000, 1036.000000)">
                <g id="Group-9" transform="translate(0.000000, 69.000000)">
                    <g id="feature-icons/illus-feat-relevance" transform="translate(5.000000, 0.000000)">
                        <g id="Group">
                            <path d="M5.51243388,10.1152426 C4.9685426,9.0618 4.60269937,7.99600219 4.36096991,7.10902951 L7.83485613,7.10902951 L7.83485613,8.54028087 C7.83485613,10.4865486 8.2715287,12.3300732 9.04415322,13.9843683 C7.61262099,13.2007891 6.44296233,11.9171497 5.51243388,10.1152426 M33.8272708,8.54028087 L33.8272708,7.10902951 L37.3005072,7.10902951 C37.0587777,7.99600219 36.6935843,9.0618 36.1490432,10.1152426 C35.2185148,11.9171497 34.0495059,13.2007891 32.6179737,13.9843683 C33.3899484,12.3300732 33.8272708,10.4865486 33.8272708,8.54028087 M41.6158979,5.3461388 C41.6685325,4.79860874 41.4878852,4.25433005 41.1187929,3.84725902 C40.7490508,3.4395377 40.2246539,3.20739016 39.6755641,3.20739016 L33.8272708,3.20739016 L33.8272708,0.606297268 L20.8310635,0.606297268 L7.83485613,0.606297268 L7.83485613,3.20739016 L1.98656283,3.20739016 C1.43682326,3.20739016 0.912426296,3.4395377 0.543334008,3.84725902 C0.173591909,4.25433005 -0.00705537295,4.79860874 0.0455792668,5.3461388 C1.03069178,15.5372208 7.51774867,18.3704612 17.4137107,20.9858601 C19.6841482,25.6047508 17.7139231,30.8791169 14.0470432,31.7082153 C13.4537664,31.8421716 13.0333391,32.3662918 13.0333391,32.9755978 L13.0333391,34.4205049 L20.8310635,34.4205049 L28.6287879,34.4205049 L28.6287879,32.9755978 C28.6287879,32.3662918 28.2083606,31.8421716 27.6150837,31.7082153 C23.9482038,30.8791169 21.977329,25.6047508 24.2484162,20.9858601 C34.1443783,18.3704612 40.6307853,15.5372208 41.6158979,5.3461388" id="Fill-6861" fill="#FAFBFC"></path>
                            <path d="M33.8270759,40.9234973 C33.8270759,41.6413989 33.2448458,42.2240437 32.5274551,42.2240437 L9.13428192,42.2240437 C8.41689128,42.2240437 7.83466119,41.6413989 7.83466119,40.9234973 L7.83466119,35.7213115 C7.83466119,35.0034098 8.41689128,34.420765 9.13428192,34.420765 L32.5274551,34.420765 C33.2448458,34.420765 33.8270759,35.0034098 33.8270759,35.7213115 L33.8270759,40.9234973 Z" id="Fill-6862" fill="#FAFBFC"></path>
                            <path d="M37.0206339,26.6898617 C37.0524746,26.6853098 37.0758678,26.6579984 37.0758678,26.6254847 L37.0758678,26.6092279 C37.0758678,26.5767142 37.0524746,26.550053 37.0206339,26.5448508 C35.2115618,26.2730366 34.1712154,25.2319492 33.8995947,23.4215885 C33.895046,23.3897251 33.867754,23.3663153 33.8352635,23.3663153 L33.8190182,23.3663153 C33.7865277,23.3663153 33.7592357,23.3897251 33.754687,23.4215885 C33.4830662,25.2319492 32.4433697,26.2730366 30.632998,26.5448508 C30.6011573,26.550053 30.5777641,26.5773645 30.5777641,26.6092279 L30.5777641,26.6254847 C30.5777641,26.6579984 30.6011573,26.6853098 30.6336478,26.6898617 C32.4433697,26.961676 33.4830662,28.0034137 33.754687,29.8137743 C33.7592357,29.8456377 33.7865277,29.8690475 33.8190182,29.8690475 L33.8424114,29.8690475 C33.8703532,29.8690475 33.8943962,29.8482388 33.8989449,29.820277 C34.1686162,28.0053645 35.2089626,26.9623262 37.0206339,26.6898617" id="Fill-6866" fill="#FFFFFF" opacity="0.699999988"></path>
                            <path d="M10.9952088,25.7828705 C11.0458941,25.7750672 11.0835831,25.7314989 11.0835831,25.6801273 L11.0835831,25.6534661 C11.0835831,25.6020945 11.0458941,25.5585262 10.9952088,25.550723 C8.09965386,25.1156902 6.43548951,23.4496902 6.00076637,20.5533732 C5.99361846,20.5020016 5.95008116,20.4642858 5.89809633,20.4642858 L5.87210392,20.4642858 C5.8207689,20.4642858 5.77723161,20.5020016 5.76943388,20.5533732 C5.33471075,23.4496902 3.6705464,25.1163404 0.774991403,25.550723 C0.724306195,25.5585262 0.686617193,25.6020945 0.686617193,25.6534661 L0.686617193,25.6801273 C0.686617193,25.7314989 0.724306195,25.7750672 0.774991403,25.7828705 C3.6705464,26.217253 5.33536056,27.883253 5.76943388,30.7808705 C5.77723161,30.8315918 5.8207689,30.8686574 5.87210392,30.8686574 L5.90979292,30.8686574 C5.95462984,30.8686574 5.99296865,30.8361437 5.99946675,30.7912749 C6.43159064,27.8878049 8.0964048,26.2179033 10.9952088,25.7828705" id="Fill-6867" fill="#FFFFFF" opacity="0.699999988"></path>
                        </g>
                    </g>
                </g>
            </g>
        </g>
    </g>
</svg>