<?xml version="1.0" encoding="UTF-8" standalone="no"?>
<svg width="45px" height="47px" viewBox="0 0 45 47" version="1.1" xmlns="http://www.w3.org/2000/svg" xmlns:xlink="http://www.w3.org/1999/xlink">
    <!-- Generator: sketchtool 39.1 (31720) - http://www.bohemiancoding.com/sketch -->
    <title>D5CA3137-8366-49EC-BCD1-B1C134E0747E</title>
    <desc>Created with sketchtool.</desc>
    <defs></defs>
    <g id="Page-2" stroke="none" stroke-width="1" fill="none" fill-rule="evenodd" opacity="0.699999988">
        <g id="wordpress-landing-copy" transform="translate(-153.000000, -655.000000)" stroke-width="1.3">
            <g id="Group-18" transform="translate(150.000000, 604.000000)">
                <g id="Group-12" transform="translate(0.000000, 52.000000)">
                    <g id="feature-icons/illus-feat-autocomplete" transform="translate(5.000000, 0.000000)">
                        <path d="M8.72691973,38.8580619 C8.72691973,38.8580619 11.154543,32.1799698 7.1616232,27.6737038 C6.94379253,27.4281763 6.9463628,27.0566712 7.16804889,26.8143574 C8.54635802,25.3071268 10.9939009,25.3392639 14.510035,31.787897 C15.4282651,33.471239 17.3431188,33.3812551 19.0080135,32.4306393 C22.1745903,30.6226053 26.7445365,24.8629919 31.5380964,26.2654555 C31.7559271,26.329087 31.92428,26.5032701 31.9801835,26.723088 C32.0360869,26.9429059 31.9718301,27.1762213 31.811188,27.3369069 L15.1526033,44 L8.72691973,38.8580619 Z" id="Fill-6500" stroke="#2897C5" fill="#FFFFFF"></path>
                        <path d="M42,25.25 C42,25.664 41.706,26 41.34375,26 L0.65625,26 C0.294,26 0,25.664 0,25.25 L0,23.75 C0,23.336 0.294,23 0.65625,23 L41.34375,23 C41.706,23 42,23.336 42,23.75 L42,25.25 Z" id="Fill-6501" stroke="#697782" fill="#FCFCFD"></path>
                        <path d="M21,2.91616039 C21.6946667,2.91616039 22.356,2.94969623 23,3 L23,0.729040097 C23,0.326609964 22.7013333,0 22.3333333,0 L19.6666667,0 C19.2986667,0 19,0.326609964 19,0.729040097 L19,3 C19.644,2.94969623 20.3053333,2.91616039 21,2.91616039" id="Fill-6502" stroke="#697782" fill="#FFFFFF"></path>
                        <path d="M3.00267539,21 C3.00267539,21 2.35991379,3 21,3 C39.6400862,3 38.9973246,21 38.9973246,21" id="Fill-6503" stroke="#697782" fill="#FFFFFF"></path>
                        <path d="M12.2647322,42.0051787 L15.5112881,44.9999998 L0,45 L8.23642253,38.2892205 L8.79949126,38.8086294 C9.20773135,37.4531748 10.6397115,31.7298207 7.13776473,27.7057776 C6.91972482,27.4555449 6.92229757,27.0769206 7.14419659,26.8299632 C8.52382965,25.293849 10.9737235,25.326602 14.493235,31.8988126 C15.4123472,33.6144131 17.3290402,33.5227048 18.995534,32.553872 C22.1651525,30.71119 26.7394884,24.841203 31.5376528,26.2705425 C31.7556927,26.3353934 31.9242073,26.5129145 31.9801644,26.7369448 C32.0361216,26.9609751 31.971803,27.1987617 31.8110066,27.3625265 L15.1364206,44.3449406 L12.2647322,42.0051787 Z" id="Fill-6504" stroke="#697782" fill="#FAFBFC"></path>
                    </g>
                </g>
            </g>
        </g>
    </g>
</svg>