<svg xmlns="http://www.w3.org/2000/svg" width="50" height="50" viewBox="0 0 50 50" xmlns:xlink="http://www.w3.org/1999/xlink">
  <defs>
    <path id="b" d="M29.9999982,1.99999988 L17.9999989,1.99999988 L17.9999989,5.99999964 L29.9999982,5.99999964 L29.9999982,1.99999988 L29.9999982,1.99999988 Z M21.9999987,27.9999983 L25.9999984,27.9999983 L25.9999984,15.999999 L21.9999987,15.999999 L21.9999987,27.9999983 L21.9999987,27.9999983 Z M38.0599951,14.7799988 L40.8999951,11.9399989 C40.0399946,10.9199994 39.0999961,9.95999848 38.0799957,9.11999933 L35.2399957,11.9599993 C32.1399973,9.47999897 28.2399979,7.99999952 23.9999986,7.99999952 C14.0599986,7.99999952 5.99999964,16.0600004 5.99999964,25.9999984 C5.99999964,35.9399964 14.0399991,43.9999974 23.9999986,43.9999974 C33.959997,43.9999974 41.9999975,35.9399964 41.9999975,25.9999984 C41.9999975,21.7599989 40.519998,17.8599995 38.0599989,14.7799988 L38.0599951,14.7799988 L38.0599951,14.7799988 Z M23.9999986,39.9999976 C16.2599992,39.9999976 9.9999994,33.7399958 9.9999994,25.9999984 C9.9999994,18.260001 16.2599992,11.9999993 23.9999986,11.9999993 C31.7399977,11.9999993 37.9999977,18.2599991 37.9999977,25.9999984 C37.9999977,33.7399958 31.7399977,39.9999976 23.9999986,39.9999976 L23.9999986,39.9999976 Z"/>
    <filter id="a" width="200%" height="200%" x="-50%" y="-50%" filterUnits="objectBoundingBox">
      <feOffset dy="2" in="SourceAlpha" result="shadowOffsetOuter1"/>
      <feGaussianBlur stdDeviation="1" in="shadowOffsetOuter1" result="shadowBlurOuter1"/>
      <feColorMatrix values="0 0 0 0 0 0 0 0 0 0 0 0 0 0 0 0 0 0 0.1 0" in="shadowBlurOuter1"/>
    </filter>
  </defs>
  <g fill="none" fill-rule="evenodd" transform="translate(1 1)">
    <polygon stroke="#000000" stroke-opacity=".008" stroke-width=".5" points="0 0 48 0 48 48 0 48"/>
    <use fill="black" filter="url(#a)" xlink:href="#b"/>
    <use fill="#FFFFFF" xlink:href="#b"/>
  </g>
</svg>