<?xml version="1.0" encoding="UTF-8"?>
<svg width="26px" height="26px" viewBox="0 0 26 26" version="1.1" xmlns="http://www.w3.org/2000/svg" xmlns:xlink="http://www.w3.org/1999/xlink">
    <!-- Generator: Sketch 40 (33762) - http://www.bohemiancoding.com/sketch -->
    <title>Combined Shape</title>
    <desc>Created with Sketch.</desc>
    <defs></defs>
    <g id="Page-2" stroke="none" stroke-width="1" fill="none" fill-rule="evenodd">
        <g id="wordpress-landing" transform="translate(-163.000000, -362.000000)" fill="#FFFFFF">
            <g id="header">
                <g id="header-content" transform="translate(150.000000, 136.000000)">
                    <g id="primary-button-copy-7" transform="translate(0.000000, 219.000000)">
                        <path d="M25.9996817,7 C18.8318411,7 13,12.8316071 13,19.9996817 C13,27.1686051 18.8318411,33 25.9996817,33 C33.1673101,33 39,27.1686051 39,19.9996817 C38.9997878,12.8316071 33.1673101,7 25.9996817,7 Z M25.9996817,32.4041282 C19.160536,32.4041282 13.5960645,26.839475 13.5960645,19.9996817 C13.5960645,13.1603128 19.1603238,7.596084 25.9996817,7.596084 C32.8386152,7.596084 38.4026623,13.1603128 38.4026623,19.9996817 C38.4026623,26.839475 32.8386152,32.4041282 25.9996817,32.4041282 Z M14.8596026,20.0074779 C14.8596026,24.4191541 17.4317596,28.231706 21.1615894,30.0384106 L15.8276988,15.4715232 C15.2072662,16.8576743 14.8596026,18.3916448 14.8596026,20.0074779 Z M33.5221703,19.452947 C33.5221703,18.0741139 33.0273643,17.1192269 32.6029722,16.3759944 C32.0379644,15.4569847 31.5083756,14.6787241 31.5083756,13.7597144 C31.5083756,12.7341343 32.2854734,11.7794595 33.38007,11.7794595 C33.429487,11.7794595 33.4763589,11.785616 33.5245033,11.7883758 C31.5414617,9.96988704 28.8994564,8.85960265 25.9976408,8.85960265 C22.1036681,8.85960265 18.6777781,10.8593883 16.6847682,13.888363 C16.9462752,13.8962178 17.1927238,13.9017374 17.4020566,13.9017374 C18.5679155,13.9017374 20.3725894,13.7601389 20.3725894,13.7601389 C20.9734404,13.7246863 21.0442785,14.6080311 20.4440637,14.6791487 C20.4440637,14.6791487 19.8402435,14.7502664 19.1683423,14.7855067 L23.227321,26.8701987 L25.6665683,19.547629 L23.9299752,14.7850822 C23.3297605,14.7498418 22.7611471,14.6787241 22.7611471,14.6787241 C22.1605082,14.6434838 22.2309221,13.7242617 22.831561,13.7597144 C22.831561,13.7597144 24.6722903,13.9013128 25.7675231,13.9013128 C26.9331698,13.9013128 28.7380559,13.7597144 28.7380559,13.7597144 C29.339331,13.7242617 29.409957,14.6076065 28.8095302,14.6787241 C28.8095302,14.6787241 28.2044374,14.7498418 27.5338087,14.7850822 L31.5618223,26.7782765 L32.6735982,23.0595668 C33.1554667,21.5164201 33.5221703,20.4080463 33.5221703,19.452947 Z M26.1946562,20.981457 L22.8490066,30.7197881 C23.8479487,31.0139423 24.9043914,31.1748344 25.9990265,31.1748344 C27.2975663,31.1748344 28.542849,30.949968 29.7019868,30.5416803 C29.6720694,30.493859 29.6449104,30.4430622 29.6226315,30.387802 L26.1946562,20.981457 Z M35.7745128,14.6450331 C35.8224609,15.0000216 35.8496174,15.3810935 35.8496174,15.7910055 C35.8496174,16.9219216 35.6383062,18.1932215 35.001827,19.7828235 L31.5960265,29.6251656 C34.9108105,27.6930866 37.1403973,24.1035465 37.1403973,19.9921267 C37.1406094,18.0545342 36.6454286,16.2325145 35.7745128,14.6450331 Z" id="Combined-Shape"></path>
                    </g>
                </g>
            </g>
        </g>
    </g>
</svg>