<?xml version="1.0" encoding="UTF-8" standalone="no"?>
<svg width="350px" height="350px" viewBox="0 0 350 350" version="1.1" xmlns="http://www.w3.org/2000/svg" xmlns:xlink="http://www.w3.org/1999/xlink">
    <!-- Generator: Sketch 39.1 (31720) - http://www.bohemiancoding.com/sketch -->
    <title>illus-analytics</title>
    <desc>Created with Sketch.</desc>
    <defs></defs>
    <g id="Page-1" stroke="none" stroke-width="1" fill="none" fill-rule="evenodd">
        <g id="illus-analytics" transform="translate(2.390685, 2.823350)">
            <g id="feature-icons/illus-feat-analytics">
                <g id="Page-1">
                    <g id="features-icons">
                        <g id="feature-icons/illus-feat-analytics">
                            <path d="M344.768901,172.628518 C344.768901,267.902697 267.587681,345.135757 172.384451,345.135757 C77.18122,345.135757 0,267.902697 0,172.628518 C0,77.357474 77.18122,0.121278204 172.384451,0.121278204 C267.587681,0.121278204 344.768901,77.357474 344.768901,172.628518" id="Fill-313" stroke-opacity="0.333305027" stroke="#2897C5" stroke-width="4" fill="#FFFFFF"></path>
                            <polygon id="Fill-2251" stroke="#FE336F" stroke-width="3" fill="#FFFFFF" points="197.900484 179.916725 160.289331 179.916725 160.289331 264.602097 197.900484 264.602097"></polygon>
                            <polygon id="Fill-2253" stroke="#FE336F" stroke-width="3" fill="#FFFFFF" points="141.483754 211.281678 103.872602 211.281678 103.872602 261.465602 141.483754 261.465602"></polygon>
                            <polygon id="Fill-2254" stroke="#FE336F" stroke-width="3" fill="#FFFFFF" points="254.317213 107.777334 216.70606 107.777334 216.70606 261.465602 254.317213 261.465602"></polygon>
                            <path d="M85.0657711,261.465602 L85.0657711,79.5488767 C85.0657711,76.0861861 82.2574716,73.2758864 78.7972458,73.2758864 C75.3370199,73.2758864 72.5287205,76.0861861 72.5287205,79.5488767 L72.5287205,274.011583 L266.85301,274.011583 C270.313236,274.011583 273.121535,271.201283 273.121535,267.738593 C273.121535,264.275902 270.313236,261.465602 266.85301,261.465602 L85.0657711,261.465602 L85.0657711,261.465602 Z" id="Fill-2252" stroke="#FFFFFF" stroke-width="4" fill="#FFFFFF"></path>
                            <path d="M85.0657711,261.465602 L85.0657711,79.5488767 C85.0657711,76.0861861 82.2574716,73.2758864 78.7972458,73.2758864 C75.3370199,73.2758864 72.5287205,76.0861861 72.5287205,79.5488767 L72.5287205,274.011583 L266.85301,274.011583 C270.313236,274.011583 273.121535,271.201283 273.121535,267.738593 C273.121535,264.275902 270.313236,261.465602 266.85301,261.465602 L85.0657711,261.465602 L85.0657711,261.465602 Z" id="Fill-2252" stroke="#2897C5" stroke-width="3" fill="#FCFCFD"></path>
                            <path d="M220.690021,141.228056 C221.953129,112.651448 199.831503,88.45966 171.272101,87.195652 C142.718967,85.9285083 118.544399,108.069028 117.281291,136.645637 C116.886374,145.543873 118.763797,154.018684 122.396408,161.508634 L77.582719,206.467157 C81.1871211,217.234746 88.3708515,224.407911 99.1401781,227.986651 L143.182838,183.799706 C150.137767,187.817556 158.1176,190.298525 166.692943,190.681177 C195.252345,191.942048 219.426913,169.804664 220.690021,141.228056" id="Fill-2255" stroke="#FFFFFF" stroke-width="4"></path>
                            <path d="M220.690021,141.228056 C221.953129,112.651448 199.831503,88.45966 171.272101,87.195652 C142.718967,85.9285083 118.544399,108.069028 117.281291,136.645637 C116.886374,145.543873 118.763797,154.018684 122.396408,161.508634 L77.582719,206.467157 C81.1871211,217.234746 88.3708515,224.407911 99.1401781,227.986651 L143.182838,183.799706 C150.137767,187.817556 158.1176,190.298525 166.692943,190.681177 C195.252345,191.942048 219.426913,169.804664 220.690021,141.228056" id="Fill-2255" stroke="#2897C5" stroke-width="3" fill="#F2F9FB"></path>
                            <path d="M205.91542,140.572842 C205.012752,160.985153 187.746099,176.799362 167.348317,175.896052 C146.95367,174.992741 131.150717,157.710652 132.053384,137.301478 C132.956052,116.889167 150.222705,101.074957 170.620488,101.978268 C191.01827,102.881579 206.821222,120.160531 205.91542,140.572842" id="Fill-2257" stroke="#2897C5" stroke-width="3" fill="#FCFCFD"></path>
                            <path d="M122.395467,161.508321 L77.5817785,206.466844 C81.186181,217.234432 88.3730451,224.407597 99.1423723,227.986338 L143.181898,183.799393 C134.192832,178.614766 126.921343,170.842531 122.395467,161.508321" id="Fill-2259" stroke="#2897C5" stroke-width="3" fill="#F2F9FB"></path>
                            <path d="M133.66847,193.344689 L143.180958,183.800334 C134.191892,178.61257 126.920402,170.840335 122.394527,161.509262 L112.111011,171.828331 L133.66847,193.344689 L133.66847,193.344689 Z" id="Fill-2261" stroke="#2897C5" stroke-width="3" fill="#FCFCFD"></path>
                        </g>
                    </g>
                </g>
            </g>
        </g>
    </g>
</svg>