<?xml version="1.0" encoding="UTF-8" standalone="no"?>
<svg width="350px" height="350px" viewBox="0 0 350 350" version="1.1" xmlns="http://www.w3.org/2000/svg" xmlns:xlink="http://www.w3.org/1999/xlink">
    <!-- Generator: Sketch 39.1 (31720) - http://www.bohemiancoding.com/sketch -->
    <title>illus-developer</title>
    <desc>Created with Sketch.</desc>
    <defs>
        <polygon id="path-1" points="28.1299326 0.586135917 31.3426274 5.56189861 5.77681726 21.0105989 31.3426274 36.5337866 27.8433543 41.3605744 0 24.1837649 0 17.7629454"></polygon>
        <polygon id="path-3" points="32.2816865 18.0760908 32.2816865 24.5118078 4.43833222 41.6737197 0.93905943 36.8469322 26.5048694 21.3237443 0.93905943 5.88994149 4.15175386 0.899281352"></polygon>
        <polygon id="path-5" points="5.25681031 65.8664005 0.158616768 63.4858665 29.6085171 0 34.6355069 2.51443905"></polygon>
    </defs>
    <g id="Page-1" stroke="none" stroke-width="1" fill="none" fill-rule="evenodd">
        <g id="illus-developer" transform="translate(2.487216, 2.823350)">
            <g id="feature-icons/illus-feat-developer">
                <g id="Page-1">
                    <g id="features-icons">
                        <g id="feature-icons/illus-feat-developer">
                            <path d="M344.768901,172.507239 C344.768901,267.78142 267.587681,345.014478 172.384451,345.014478 C77.18122,345.014478 0,267.78142 0,172.507239 C0,77.2361956 77.18122,0 172.384451,0 C267.587681,0 344.768901,77.2361956 344.768901,172.507239" id="Fill-311" stroke-opacity="0.333305027" stroke="#2897C5" stroke-width="4" fill="#FFFFFF"></path>
                            <path d="M273.120909,228.109459 C273.120909,233.149807 269.040099,237.233524 264.003338,237.233524 L81.6456639,237.233524 C76.6089035,237.233524 72.5280934,233.149807 72.5280934,228.109459 L72.5280934,100.369417 C72.5280934,95.3290685 76.6089035,91.2422153 81.6456639,91.2422153 L264.003338,91.2422153 C269.040099,91.2422153 273.120909,95.3290685 273.120909,100.369417 L273.120909,228.109459 L273.120909,228.109459 Z" id="Fill-4606" stroke="#2897C5" stroke-width="3" fill="#FCFCFD"></path>
                            <polygon id="Fill-4607" stroke="#2897C5" stroke-width="3" fill="#FCFCFD" points="200.179093 260.614528 145.470536 260.614528 145.470536 237.235092 200.179093 237.235092"></polygon>
                            <path d="M218.413606,265.177815 C218.413606,267.696421 216.373201,269.738279 213.853254,269.738279 L131.795121,269.738279 C129.278308,269.738279 127.234769,267.696421 127.234769,265.177815 C127.234769,262.656072 129.278308,260.614214 131.795121,260.614214 L213.853254,260.614214 C216.373201,260.614214 218.413606,262.656072 218.413606,265.177815" id="Fill-4608" stroke="#2897C5" stroke-width="3" fill="#FCFCFD"></path>
                            <path d="M273.120909,228.109459 L273.120909,200.737265 L72.5280934,200.737265 L72.5280934,228.109459 C72.5280934,233.149807 76.6120377,237.233524 81.6456639,237.233524 L264.003338,237.233524 C269.040099,237.233524 273.120909,233.149807 273.120909,228.109459" id="Fill-4609" stroke="#2897C5" stroke-width="3" fill="#F2F9FB"></path>
                            <path d="M172.824501,230.168882 C166.976791,230.168882 162.217216,225.405916 162.217216,219.554041 C162.217216,213.702165 166.976791,208.9392 172.824501,208.9392 C178.674925,208.9392 183.431787,213.702165 183.431787,219.554041 C183.431787,225.405916 178.674925,230.168882 172.824501,230.168882" id="Fill-4610" stroke="#2897C5" stroke-width="3" fill="#FCFCFD"></path>
                            <g id="Fill-4614-+-Fill-4619-+-Fill-4641" transform="translate(115.967723, 116.050323)">
                                <g id="Fill-4614-Clipped" transform="translate(0.000000, 8.823350)">
                                    <mask id="mask-2" fill="white">
                                        <use xlink:href="#path-1"></use>
                                    </mask>
                                    <g id="path-1"></g>
                                    <g id="Fill-4614" mask="url(#mask-2)" stroke-width="3" stroke="#FE336F" fill="#FFFFFF">
                                        <polygon id="path-1" points="28.1299326 0.586135917 31.3426274 5.56189861 5.77681726 21.0105989 31.3426274 36.5337866 27.8433543 41.3605744 1.42108547e-14 24.1837649 1.42108547e-14 17.7629454"></polygon>
                                    </g>
                                </g>
                                <g id="Fill-4619-Clipped" transform="translate(86.820297, 11.646700)">
                                    <mask id="mask-4" fill="white">
                                        <use xlink:href="#path-3"></use>
                                    </mask>
                                    <g id="path-3"></g>
                                    <g id="Fill-4619" mask="url(#mask-4)" stroke-width="3" stroke="#FE336F" fill="#FFFFFF">
                                        <polygon id="path-3" points="32.2816865 18.0760908 32.2816865 24.5118078 4.43833222 41.6737197 0.93905943 36.8469322 26.5048694 21.3237443 0.93905943 5.88994149 4.15175386 0.899281352"></polygon>
                                    </g>
                                </g>
                                <g id="Fill-4641-Clipped" transform="translate(40.586799, 0.000000)">
                                    <mask id="mask-6" fill="white">
                                        <use xlink:href="#path-5"></use>
                                    </mask>
                                    <g id="path-5"></g>
                                    <g id="Fill-4641" mask="url(#mask-6)" stroke-width="3" stroke="#FE336F" fill="#FFFFFF">
                                        <polygon id="path-5" points="5.25681031 65.8664005 0.158616768 63.4858665 29.6085171 0 34.6355069 2.51443905"></polygon>
                                    </g>
                                </g>
                            </g>
                        </g>
                    </g>
                </g>
            </g>
        </g>
    </g>
</svg>