<svg width="74" height="74" viewBox="0 0 74 74" xmlns="http://www.w3.org/2000/svg"><g fill="none" fill-rule="evenodd"><path d="M72.48 36.765c0 19.753-16.002 35.765-35.74 35.765C17.002 72.53 1 56.518 1 36.765 1 17.013 17.002 1 36.74 1c19.738 0 35.74 16.013 35.74 35.765" stroke-opacity=".333" stroke="#2897C5" stroke-width="1" fill="#FFF"/><path d="M28.292 24.632c0-.267-.075-.53-.217-.756l-2.145-4.648a1.43 1.43 0 0 0-2.424 0l-2.145 4.648c-.14.227-.216.49-.216.756v30.99h7.148v-30.99zM52.985 24.632c0-.267-.075-.53-.217-.756l-2.145-4.648a1.43 1.43 0 0 0-2.424 0l-2.146 4.648c-.142.227-.217.49-.217.756v30.99h7.148v-30.99z" stroke="#FE336F" stroke-width="1" fill="#FFF"/><path d="M45.187 26.296c0-1.8-3.71-13.59-8.447-13.59-4.808 0-8.448 12.028-8.448 13.59v29.327h16.895V26.296z" stroke="#FFF" stroke-width="2" fill="#FFF"/><path d="M45.187 26.296c0-1.8-3.71-13.59-8.447-13.59-4.808 0-8.448 12.028-8.448 13.59v29.327h16.895V26.296z" stroke="#2897C5" stroke-width="1" fill="#FCFCFD"/><path d="M54.945 49.5c-4.975-3.296-8.98-7.396-12.226-12.125a7.864 7.864 0 0 1-1.382-4.444v-6.87c0-.256-.07-.506-.206-.734l-1.845-3.937-1.005-2.14a1.422 1.422 0 0 0-1.218-.693c-.498 0-.96.264-1.218.692l-1.004 2.14-1.845 3.936c-.13.22-.206.47-.206.734v6.87a7.83 7.83 0 0 1-1.38 4.445c-3.246 4.73-7.252 8.83-12.226 12.126a1.43 1.43 0 0 0-.64 1.192v3.505c0 .787.638 1.426 1.425 1.426h34.189c.786 0 1.424-.64 1.424-1.426v-3.505c0-.48-.24-.927-.64-1.19" stroke="#FFF" stroke-width="2" fill="#FFF"/><path d="M54.945 49.5c-4.975-3.296-8.98-7.396-12.226-12.125a7.864 7.864 0 0 1-1.382-4.444v-6.87c0-.256-.07-.506-.206-.734l-1.845-3.937-1.005-2.14a1.422 1.422 0 0 0-1.218-.693c-.498 0-.96.264-1.218.692l-1.004 2.14-1.845 3.936c-.13.22-.206.47-.206.734v6.87a7.83 7.83 0 0 1-1.38 4.445c-3.246 4.73-7.252 8.83-12.226 12.126a1.43 1.43 0 0 0-.64 1.192v3.505c0 .787.638 1.426 1.425 1.426h34.189c.786 0 1.424-.64 1.424-1.426v-3.505c0-.48-.24-.927-.64-1.19" stroke="#2897C5" stroke-width="1" fill="#FCFCFD"/><path d="M54.945 49.5c-4.975-3.296-8.98-7.396-12.226-12.125a7.864 7.864 0 0 1-1.382-4.444v-6.87c0-.256-.07-.506-.206-.734l-1.845-3.937-1.005-2.14a1.422 1.422 0 0 0-1.218-.693c-.498 0-.96.264-1.218.692l-1.004 2.14-1.845 3.936c-.13.22-.206.47-.206.734v6.87a7.83 7.83 0 0 1-1.38 4.445c-3.246 4.73-7.252 8.83-12.226 12.126a1.43 1.43 0 0 0-.64 1.192v3.505c0 .787.638 1.426 1.425 1.426h34.189c.786 0 1.424-.64 1.424-1.426v-3.505c0-.48-.24-.927-.64-1.19"/><path d="M40.653 39.185a5.092 5.092 0 0 1-.894-2.878l-.924-7.964C38.67 28.066 37.314 27 36.99 27c-.32 0-1.677 1.066-1.843 1.343l-.923 7.964a5.07 5.07 0 0 1-.894 2.878c-2.1 3.06-4.695 5.716-7.916 7.85a.926.926 0 0 0-.414.772v2.27c0 .51.413.923.922.923H48.06c.51 0 .923-.414.923-.924v-2.27c0-.31-.156-.6-.414-.77-3.222-2.135-5.816-4.79-7.917-7.85z" fill="#F2F9FB"/><path d="M43.845 56.49c-.15-.563.046.187-1.17-4.516-.327-1.24-1.483-2.11-2.806-2.11h-1.464c-.314-.826-.746-1.394-1.342-1.394-.597 0-1.03.57-1.343 1.393h-1.46c-1.323 0-2.48.87-2.805 2.11-1.217 4.704-1.022 3.954-1.17 4.516-.11.417-.008.863.267 1.198.267.34.694.536 1.134.536h10.756c.44 0 .868-.195 1.135-.536.275-.335.376-.78.268-1.2" stroke="#2897C5" stroke-width="1" fill="#FCFCFD"/><path d="M36.74 48.47c-.57 0-.98.568-1.28 1.393h-1.392c-1.26 0-2.36.87-2.67 2.11-1.16 4.704-.974 3.954-1.116 4.516-.103.417-.007.863.255 1.198.255.34.66.536 1.08.536h5.123V48.47zM37.064 23.11c-1.614 0-2.924 1.164-2.924 2.6h5.85c0-1.436-1.31-2.6-2.926-2.6" stroke="#2897C5" stroke-width="1" fill="#FCFCFD"/><path d="M43.577 57.723c-.267.32-.694.5-1.135.5H31.686c-.44 0-.867-.18-1.134-.5a1.2 1.2 0 0 1-.268-1.118l.094-.332H43.75l.095.332a1.2 1.2 0 0 1-.268 1.118" stroke="#2897C5" stroke-width="1" fill="#FCFCFD"/></g></svg>