<?xml version="1.0" encoding="UTF-8" standalone="no"?>
<svg width="350px" height="350px" viewBox="0 0 350 350" version="1.1" xmlns="http://www.w3.org/2000/svg" xmlns:xlink="http://www.w3.org/1999/xlink">
    <!-- Generator: Sketch 39.1 (31720) - http://www.bohemiancoding.com/sketch -->
    <title>illus-sync</title>
    <desc>Created with Sketch.</desc>
    <defs></defs>
    <g id="Page-1" stroke="none" stroke-width="1" fill="none" fill-rule="evenodd">
        <g id="illus-sync" transform="translate(2.000000, 2.000000)">
            <g id="feature-icons/illus-feat-sync" transform="translate(-0.000000, 0.000000)">
                <g id="Page-1">
                    <g id="features-icons">
                        <g id="feature-icons/illus-feat-sync">
                            <path d="M173.267345,345.135757 C78.064115,345.135757 0.882894865,267.902697 0.882894865,172.628518 C0.882894865,77.357474 78.064115,0.121278204 173.267345,0.121278204 C268.470576,0.121278204 345.651796,77.357474 345.651796,172.628518 C345.651796,267.902697 268.470576,345.135757 173.267345,345.135757 L173.267345,345.135757 Z" id="Fill-311" stroke-opacity="0.333305027" stroke="#2897C5" stroke-width="4" fill="#FFFFFF"></path>
                            <path d="M229.935442,178.309887 C229.935442,168.404914 223.882856,159.942888 215.317288,156.459552 C208.535349,139.685734 197.570868,132.869296 184.145256,132.869296 C171.525042,132.869296 160.588215,140.136437 155.226957,150.771617 C146.692499,147.099615 137.072653,153.19982 136.716619,162.643609 C128.946079,165.414206 123.37051,172.877001 123.37051,181.674433 C123.37051,192.830192 132.316309,201.872192 143.349922,201.872192 L209.95603,201.872192 C209.95603,201.872192 229.935442,198.126819 229.935442,178.309887" id="Fill-7028" stroke="#FE336F" stroke-width="3" fill="#FFFFFF"></path>
                            <path d="M119.485402,226.359897 C102.156891,209.736942 93.4827839,186.542395 95.6857944,162.732619 C99.6701298,119.697897 138.122319,87.9136477 181.398273,91.8714942 L179.955873,107.483435 L229.935442,80.5739982 L185.737298,45.0474289 L184.290956,60.6554506 C123.698315,55.1105469 69.8684024,99.6108475 64.2919091,159.860241 C61.206118,193.19236 73.3443514,225.654538 97.593231,248.919621 L119.485402,226.359897 L119.485402,226.359897 Z" id="Fill-7030" stroke="#2897C5" stroke-width="3" fill="#F2F9FB"></path>
                            <path d="M227.552025,114.654582 C244.880535,131.277537 253.554643,154.472084 251.351632,178.28186 C247.367297,221.316582 208.915108,253.104749 165.639153,249.142984 L167.081554,233.531044 L117.101984,260.44048 L161.300129,295.96705 L162.74647,280.359028 C223.339112,285.903932 277.169024,241.403632 282.745518,181.158157 C285.831309,147.826037 273.693075,115.363859 249.444196,92.0948577 L227.552025,114.654582 L227.552025,114.654582 Z" id="Fill-7031" stroke="#2897C5" stroke-width="3" fill="#F2F9FB"></path>
                        </g>
                    </g>
                </g>
            </g>
        </g>
    </g>
</svg>