<?xml version="1.0" encoding="UTF-8"?>
<svg width="429px" height="309px" viewBox="0 0 429 309" version="1.1" xmlns="http://www.w3.org/2000/svg" xmlns:xlink="http://www.w3.org/1999/xlink">
    <!-- Generator: Sketch 40 (33762) - http://www.bohemiancoding.com/sketch -->
    <title>autocomplete-illus</title>
    <desc>Created with Sketch.</desc>
    <defs>
        <rect id="path-1" x="0" y="0" width="423" height="41" rx="4"></rect>
        <filter x="-50%" y="-50%" width="200%" height="200%" filterUnits="objectBoundingBox" id="filter-2">
            <feMorphology radius="1" operator="dilate" in="SourceAlpha" result="shadowSpreadOuter1"></feMorphology>
            <feOffset dx="0" dy="2" in="shadowSpreadOuter1" result="shadowOffsetOuter1"></feOffset>
            <feGaussianBlur stdDeviation="1" in="shadowOffsetOuter1" result="shadowBlurOuter1"></feGaussianBlur>
            <feComposite in="shadowBlurOuter1" in2="SourceAlpha" operator="out" result="shadowBlurOuter1"></feComposite>
            <feColorMatrix values="0 0 0 0 0   0 0 0 0 0   0 0 0 0 0  0 0 0 0.1 0" type="matrix" in="shadowBlurOuter1"></feColorMatrix>
        </filter>
        <mask id="mask-3" maskContentUnits="userSpaceOnUse" maskUnits="objectBoundingBox" x="-1" y="-1" width="425" height="43">
            <rect x="-1" y="-1" width="425" height="43" fill="white"></rect>
            <use xlink:href="#path-1" fill="black"></use>
        </mask>
        <rect id="path-4" x="0" y="0" width="423" height="254" rx="4"></rect>
        <filter x="-50%" y="-50%" width="200%" height="200%" filterUnits="objectBoundingBox" id="filter-5">
            <feMorphology radius="1" operator="dilate" in="SourceAlpha" result="shadowSpreadOuter1"></feMorphology>
            <feOffset dx="0" dy="2" in="shadowSpreadOuter1" result="shadowOffsetOuter1"></feOffset>
            <feGaussianBlur stdDeviation="1" in="shadowOffsetOuter1" result="shadowBlurOuter1"></feGaussianBlur>
            <feComposite in="shadowBlurOuter1" in2="SourceAlpha" operator="out" result="shadowBlurOuter1"></feComposite>
            <feColorMatrix values="0 0 0 0 0   0 0 0 0 0   0 0 0 0 0  0 0 0 0.1 0" type="matrix" in="shadowBlurOuter1"></feColorMatrix>
        </filter>
        <mask id="mask-6" maskContentUnits="userSpaceOnUse" maskUnits="objectBoundingBox" x="-1" y="-1" width="425" height="256">
            <rect x="-1" y="-1" width="425" height="256" fill="white"></rect>
            <use xlink:href="#path-4" fill="black"></use>
        </mask>
    </defs>
    <g id="Page-2" stroke="none" stroke-width="1" fill="none" fill-rule="evenodd">
        <g id="wordpress-landing" transform="translate(-260.000000, -603.000000)">
            <g id="autocomplete" transform="translate(263.000000, 604.000000)">
                <g id="autocomplete-illus">
                    <g id="searchbox">
                        <g id="Rectangle-56">
                            <use fill="black" fill-opacity="1" filter="url(#filter-2)" xlink:href="#path-1"></use>
                            <use fill="#FFFFFF" fill-rule="evenodd" xlink:href="#path-1"></use>
                            <use stroke="#D8D9DE" mask="url(#mask-3)" stroke-width="2" xlink:href="#path-1"></use>
                        </g>
                        <path d="M399.375368,20 L394.312316,14.9369483 L394,14.6246322 L394.624632,14 L394.936948,14.3123161 L400,19.3753678 L405.063052,14.3123161 L405.375368,14 L406,14.6246322 L405.687684,14.9369483 L400.624632,20 L405.687684,25.0630517 L406,25.3753678 L405.375368,26 L405.063052,25.6876839 L400,20.6246322 L394.936948,25.6876839 L394.624632,26 L394,25.3753678 L394.312316,25.0630517 L399.375368,20 Z" id="sbx-icon-clear-2" fill="#000000"></path>
                        <g id="cross" transform="translate(253.000000, 15.000000)"></g>
                        <path d="M28.1497999,22.6918239 L27.3819325,22.6918239 L27.109777,22.4293882 C28.0623213,21.3213265 28.6357919,19.8827902 28.6357919,18.3178959 C28.6357919,14.8284734 25.8073185,12 22.3178959,12 C18.8284734,12 16,14.8284734 16,18.3178959 C16,21.8073185 18.8284734,24.6357919 22.3178959,24.6357919 C23.8827902,24.6357919 25.3213265,24.0623213 26.4293882,23.109777 L26.6918239,23.3819325 L26.6918239,24.1497999 L31.5517439,29 L33,27.5517439 L28.1497999,22.6918239 L28.1497999,22.6918239 Z M22.3178959,22.6918239 C19.8976558,22.6918239 17.943968,20.7381361 17.943968,18.3178959 C17.943968,15.8976558 19.8976558,13.943968 22.3178959,13.943968 C24.7381361,13.943968 26.6918239,15.8976558 26.6918239,18.3178959 C26.6918239,20.7381361 24.7381361,22.6918239 22.3178959,22.6918239 L22.3178959,22.6918239 Z" id="search-icon-copy-7" fill="#697782" opacity="0.5"></path>
                        <text id="Gi" font-family="OpenSans, Open Sans" font-size="15" font-weight="normal" fill="#262626">
                            <tspan x="45" y="26">Gi</tspan>
                        </text>
                    </g>
                    <g id="dropdown" transform="translate(0.000000, 49.000000)">
                        <g id="Rectangle-56-Copy">
                            <use fill="black" fill-opacity="1" filter="url(#filter-5)" xlink:href="#path-4"></use>
                            <use fill="#FFFFFF" fill-rule="evenodd" xlink:href="#path-4"></use>
                            <use stroke="#D8D9DE" mask="url(#mask-6)" stroke-width="2" xlink:href="#path-4"></use>
                        </g>
                        <g id="Group-143" transform="translate(16.000000, 13.000000)">
                            <g id="Group-142">
                                <rect id="Rectangle-17-Copy-4" fill="#16ABE9" opacity="0.2" x="0" y="2" width="15" height="15" rx="1"></rect>
                                <rect id="Rectangle-17-Copy-5" fill="#16ABE9" opacity="0.2" x="0" y="32" width="15" height="15" rx="1"></rect>
                                <rect id="Rectangle-17-Copy-6" fill="#16ABE9" opacity="0.2" x="0" y="62" width="15" height="15" rx="1"></rect>
                                <rect id="Rectangle-17-Copy-7" fill="#16ABE9" opacity="0.2" x="0" y="92" width="15" height="15" rx="1"></rect>
                                <rect id="Rectangle-17-Copy-8" fill="#16ABE9" opacity="0.2" x="0" y="122" width="15" height="15" rx="1"></rect>
                                <rect id="Rectangle-17-Copy-9" fill="#16ABE9" opacity="0.2" x="0" y="152" width="15" height="15" rx="1"></rect>
                                <rect id="Rectangle-17-Copy-10" fill="#16ABE9" opacity="0.2" x="0" y="182" width="15" height="15" rx="1"></rect>
                                <rect id="Rectangle-17-Copy-11" fill="#16ABE9" opacity="0.2" x="163" y="212" width="15" height="15" rx="1"></rect>
                                <text id="Girl---Jamie-XX" font-family="OpenSans, Open Sans" font-size="14" font-weight="normal">
                                    <tspan x="1" y="15" fill="#24B3E4">Gi</tspan>
                                    <tspan x="14.7333984" y="15" fill="#262626">rl </tspan>
                                    <tspan x="27.6259766" y="15" fill="#323333" fill-opacity="0.5">- Jamie XX</tspan>
                                </text>
                                <text id="Girl---The-Internet-" font-family="OpenSans, Open Sans" font-size="14" font-weight="normal">
                                    <tspan x="1" y="45" fill="#24B3E4">Gi</tspan>
                                    <tspan x="14.7333984" y="45" fill="#262626">rl </tspan>
                                    <tspan x="27.6259766" y="45" fill="#262626" fill-opacity="0.5">- The Internet &amp; KAYTRANADA</tspan>
                                </text>
                                <text id="Gimme-Shelter---The-" font-family="OpenSans, Open Sans" font-size="14" font-weight="normal">
                                    <tspan x="1" y="75" fill="#24B3E4">Gi</tspan>
                                    <tspan x="14.7333984" y="75" fill="#262626">mme Shelter</tspan>
                                    <tspan x="98.453125" y="75" fill="#262626" fill-opacity="0.5"> - The Rolling Stones</tspan>
                                </text>
                                <text id="Give-It-Up---J-Dilla" font-family="OpenSans, Open Sans" font-size="14" font-weight="normal">
                                    <tspan x="1" y="105" fill="#24B3E4">Gi</tspan>
                                    <tspan x="14.7333984" y="105" fill="#262626">ve It Up</tspan>
                                    <tspan x="64.4921875" y="105" fill="#262626" fill-opacity="0.5"> - J Dilla</tspan>
                                </text>
                                <text id="Girl-On-Fire---Alici" font-family="OpenSans, Open Sans" font-size="14" font-weight="normal">
                                    <tspan x="1" y="135" fill="#24B3E4">Gi</tspan>
                                    <tspan x="14.7333984" y="135" fill="#262626">rl On Fire</tspan>
                                    <tspan x="75.0947266" y="135" fill="#262626" fill-opacity="0.5"> - Alicia Keys</tspan>
                                </text>
                                <text id="Giorgio-by-Moroder--" font-family="OpenSans, Open Sans" font-size="14" font-weight="normal">
                                    <tspan x="1" y="165" fill="#24B3E4">Gi</tspan>
                                    <tspan x="14.7333984" y="165" fill="#262626">orgio by Moroder</tspan>
                                    <tspan x="128.893555" y="165" fill="#323333" fill-opacity="0.5"> - Daft Punk</tspan>
                                </text>
                                <text id="Give-It-Away---Red-H" font-family="OpenSans, Open Sans" font-size="14" font-weight="normal">
                                    <tspan x="1" y="195" fill="#24B3E4">Gi</tspan>
                                    <tspan x="14.7333984" y="195" fill="#262626">ve It Away </tspan>
                                    <tspan x="83.9472656" y="195" fill="#262626" fill-opacity="0.5">- Red Hot Chili Peppers</tspan>
                                </text>
                                <text id="This-Song-Is-Not-Abo" font-family="OpenSans, Open Sans" font-size="14" font-weight="normal">
                                    <tspan x="1" y="225" fill="#262626">This Song Is Not About a </tspan>
                                    <tspan x="163.53125" y="225" fill="#24B3E4">Gi</tspan>
                                    <tspan x="177.264648" y="225" fill="#262626">rl </tspan>
                                    <tspan x="190.157227" y="225" fill="#262626" fill-opacity="0.5">- Chet Faker</tspan>
                                </text>
                            </g>
                        </g>
                        <g id="Group-47" transform="translate(345.000000, 14.000000)">
                            <g id="Page-1" opacity="0.349999994" transform="translate(46.000000, 1.000000)">
                                <polygon id="Stroke-1" stroke-opacity="0.00784313771" stroke="#000000" stroke-width="0.5" points="0 0 15.999999 0 15.999999 15.999999 0 15.999999"></polygon>
                                <path d="M7.99999952,14.2333327 L7.03333298,13.3533329 C3.59999984,10.2399991 1.33333325,8.18666598 1.33333325,5.66666633 C1.33333325,3.61333316 2.94666654,1.99999988 4.9999997,1.99999988 C6.15999948,1.99999988 7.27333276,2.53999981 7.99999952,3.39333323 C8.72666621,2.53999981 9.83999954,1.99999988 10.9999993,1.99999988 C13.0533325,1.99999988 14.6666658,3.61333316 14.6666658,5.66666633 C14.6666658,8.18666598 12.3999995,10.2399998 8.966666,13.3599998 L7.99999952,14.2333327 L7.99999952,14.2333327 Z" id="Fill-2" fill="#FE336F"></path>
                            </g>
                            <text id="24,3-M" font-family="OpenSans, Open Sans" font-size="12" font-weight="normal" fill-opacity="0.5" fill="#323333">
                                <tspan x="0.5234375" y="13">24,3 M</tspan>
                            </text>
                        </g>
                        <g id="Group-47-Copy" transform="translate(345.000000, 44.000000)">
                            <g id="Page-1" opacity="0.349999994" transform="translate(46.000000, 1.000000)">
                                <polygon id="Stroke-1" stroke-opacity="0.00784313771" stroke="#000000" stroke-width="0.5" points="0 0 15.999999 0 15.999999 15.999999 0 15.999999"></polygon>
                                <path d="M7.99999952,14.2333327 L7.03333298,13.3533329 C3.59999984,10.2399991 1.33333325,8.18666598 1.33333325,5.66666633 C1.33333325,3.61333316 2.94666654,1.99999988 4.9999997,1.99999988 C6.15999948,1.99999988 7.27333276,2.53999981 7.99999952,3.39333323 C8.72666621,2.53999981 9.83999954,1.99999988 10.9999993,1.99999988 C13.0533325,1.99999988 14.6666658,3.61333316 14.6666658,5.66666633 C14.6666658,8.18666598 12.3999995,10.2399998 8.966666,13.3599998 L7.99999952,14.2333327 L7.99999952,14.2333327 Z" id="Fill-2" fill="#FE336F"></path>
                            </g>
                            <text id="13,1-M" font-family="OpenSans, Open Sans" font-size="12" font-weight="normal" fill-opacity="0.5" fill="#323333">
                                <tspan x="0.5234375" y="13">13,1 M</tspan>
                            </text>
                        </g>
                        <g id="Group-47-Copy-2" transform="translate(352.000000, 74.000000)">
                            <g id="Page-1" opacity="0.349999994" transform="translate(39.000000, 1.000000)">
                                <polygon id="Stroke-1" stroke-opacity="0.00784313771" stroke="#000000" stroke-width="0.5" points="0 0 15.999999 0 15.999999 15.999999 0 15.999999"></polygon>
                                <path d="M7.99999952,14.2333327 L7.03333298,13.3533329 C3.59999984,10.2399991 1.33333325,8.18666598 1.33333325,5.66666633 C1.33333325,3.61333316 2.94666654,1.99999988 4.9999997,1.99999988 C6.15999948,1.99999988 7.27333276,2.53999981 7.99999952,3.39333323 C8.72666621,2.53999981 9.83999954,1.99999988 10.9999993,1.99999988 C13.0533325,1.99999988 14.6666658,3.61333316 14.6666658,5.66666633 C14.6666658,8.18666598 12.3999995,10.2399998 8.966666,13.3599998 L7.99999952,14.2333327 L7.99999952,14.2333327 Z" id="Fill-2" fill="#FE336F"></path>
                            </g>
                            <text id="3,8-M" font-family="OpenSans, Open Sans" font-size="12" font-weight="normal" fill-opacity="0.5" fill="#323333">
                                <tspan x="0.384765625" y="13">3,8 M</tspan>
                            </text>
                        </g>
                        <g id="Group-47-Copy-3" transform="translate(342.000000, 104.000000)">
                            <g id="Page-1" opacity="0.349999994" transform="translate(49.000000, 1.000000)">
                                <polygon id="Stroke-1" stroke-opacity="0.00784313771" stroke="#000000" stroke-width="0.5" points="0 0 15.999999 0 15.999999 15.999999 0 15.999999"></polygon>
                                <path d="M7.99999952,14.2333327 L7.03333298,13.3533329 C3.59999984,10.2399991 1.33333325,8.18666598 1.33333325,5.66666633 C1.33333325,3.61333316 2.94666654,1.99999988 4.9999997,1.99999988 C6.15999948,1.99999988 7.27333276,2.53999981 7.99999952,3.39333323 C8.72666621,2.53999981 9.83999954,1.99999988 10.9999993,1.99999988 C13.0533325,1.99999988 14.6666658,3.61333316 14.6666658,5.66666633 C14.6666658,8.18666598 12.3999995,10.2399998 8.966666,13.3599998 L7.99999952,14.2333327 L7.99999952,14.2333327 Z" id="Fill-2" fill="#FE336F"></path>
                            </g>
                            <text id="984,7-K" font-family="OpenSans, Open Sans" font-size="12" font-weight="normal" fill-opacity="0.5" fill="#323333">
                                <tspan x="0.130859375" y="13">984,7 K</tspan>
                            </text>
                        </g>
                        <g id="Group-47-Copy-4" transform="translate(342.000000, 134.000000)">
                            <g id="Page-1" opacity="0.349999994" transform="translate(49.000000, 1.000000)">
                                <polygon id="Stroke-1" stroke-opacity="0.00784313771" stroke="#000000" stroke-width="0.5" points="0 0 15.999999 0 15.999999 15.999999 0 15.999999"></polygon>
                                <path d="M7.99999952,14.2333327 L7.03333298,13.3533329 C3.59999984,10.2399991 1.33333325,8.18666598 1.33333325,5.66666633 C1.33333325,3.61333316 2.94666654,1.99999988 4.9999997,1.99999988 C6.15999948,1.99999988 7.27333276,2.53999981 7.99999952,3.39333323 C8.72666621,2.53999981 9.83999954,1.99999988 10.9999993,1.99999988 C13.0533325,1.99999988 14.6666658,3.61333316 14.6666658,5.66666633 C14.6666658,8.18666598 12.3999995,10.2399998 8.966666,13.3599998 L7.99999952,14.2333327 L7.99999952,14.2333327 Z" id="Fill-2" fill="#FE336F"></path>
                            </g>
                            <text id="856,2-K" font-family="OpenSans, Open Sans" font-size="12" font-weight="normal" fill-opacity="0.5" fill="#323333">
                                <tspan x="0.130859375" y="13">856,2 K</tspan>
                            </text>
                        </g>
                        <g id="Group-47-Copy-5" transform="translate(351.000000, 164.000000)">
                            <g id="Page-1" opacity="0.349999994" transform="translate(40.000000, 1.000000)">
                                <polygon id="Stroke-1" stroke-opacity="0.00784313771" stroke="#000000" stroke-width="0.5" points="0 0 15.999999 0 15.999999 15.999999 0 15.999999"></polygon>
                                <path d="M7.99999952,14.2333327 L7.03333298,13.3533329 C3.59999984,10.2399991 1.33333325,8.18666598 1.33333325,5.66666633 C1.33333325,3.61333316 2.94666654,1.99999988 4.9999997,1.99999988 C6.15999948,1.99999988 7.27333276,2.53999981 7.99999952,3.39333323 C8.72666621,2.53999981 9.83999954,1.99999988 10.9999993,1.99999988 C13.0533325,1.99999988 14.6666658,3.61333316 14.6666658,5.66666633 C14.6666658,8.18666598 12.3999995,10.2399998 8.966666,13.3599998 L7.99999952,14.2333327 L7.99999952,14.2333327 Z" id="Fill-2" fill="#FE336F"></path>
                            </g>
                            <text id="788-K" font-family="OpenSans, Open Sans" font-size="12" font-weight="normal" fill-opacity="0.5" fill="#323333">
                                <tspan x="0.93359375" y="13">788 K</tspan>
                            </text>
                        </g>
                        <g id="Group-47-Copy-6" transform="translate(342.000000, 194.000000)">
                            <g id="Page-1" opacity="0.349999994" transform="translate(49.000000, 1.000000)">
                                <polygon id="Stroke-1" stroke-opacity="0.00784313771" stroke="#000000" stroke-width="0.5" points="0 0 15.999999 0 15.999999 15.999999 0 15.999999"></polygon>
                                <path d="M7.99999952,14.2333327 L7.03333298,13.3533329 C3.59999984,10.2399991 1.33333325,8.18666598 1.33333325,5.66666633 C1.33333325,3.61333316 2.94666654,1.99999988 4.9999997,1.99999988 C6.15999948,1.99999988 7.27333276,2.53999981 7.99999952,3.39333323 C8.72666621,2.53999981 9.83999954,1.99999988 10.9999993,1.99999988 C13.0533325,1.99999988 14.6666658,3.61333316 14.6666658,5.66666633 C14.6666658,8.18666598 12.3999995,10.2399998 8.966666,13.3599998 L7.99999952,14.2333327 L7.99999952,14.2333327 Z" id="Fill-2" fill="#FE336F"></path>
                            </g>
                            <text id="651,8-K" font-family="OpenSans, Open Sans" font-size="12" font-weight="normal" fill-opacity="0.5" fill="#323333">
                                <tspan x="0.130859375" y="13">651,8 K</tspan>
                            </text>
                        </g>
                        <g id="Group-47-Copy-7" transform="translate(351.000000, 224.000000)">
                            <g id="Page-1" opacity="0.349999994" transform="translate(40.000000, 1.000000)">
                                <polygon id="Stroke-1" stroke-opacity="0.00784313771" stroke="#000000" stroke-width="0.5" points="0 0 15.999999 0 15.999999 15.999999 0 15.999999"></polygon>
                                <path d="M7.99999952,14.2333327 L7.03333298,13.3533329 C3.59999984,10.2399991 1.33333325,8.18666598 1.33333325,5.66666633 C1.33333325,3.61333316 2.94666654,1.99999988 4.9999997,1.99999988 C6.15999948,1.99999988 7.27333276,2.53999981 7.99999952,3.39333323 C8.72666621,2.53999981 9.83999954,1.99999988 10.9999993,1.99999988 C13.0533325,1.99999988 14.6666658,3.61333316 14.6666658,5.66666633 C14.6666658,8.18666598 12.3999995,10.2399998 8.966666,13.3599998 L7.99999952,14.2333327 L7.99999952,14.2333327 Z" id="Fill-2" fill="#FE336F"></path>
                            </g>
                            <text id="396-K" font-family="OpenSans, Open Sans" font-size="12" font-weight="normal" fill-opacity="0.5" fill="#323333">
                                <tspan x="0.93359375" y="13">396 K</tspan>
                            </text>
                        </g>
                    </g>
                </g>
            </g>
        </g>
    </g>
</svg>