
<svg xmlns="http://www.w3.org/2000/svg" width="429" height="309" viewBox="0 0 429 309" xmlns:xlink="http://www.w3.org/1999/xlink">
  <defs>
    <rect id="a" width="423" height="41" rx="4"/>
    <filter id="c" width="200%" height="200%" x="-50%" y="-50%" filterUnits="objectBoundingBox">
      <feMorphology radius="1" operator="dilate" in="SourceAlpha" result="shadowSpreadOuter1"/>
      <feOffset dy="2" in="shadowSpreadOuter1" result="shadowOffsetOuter1"/>
      <feGaussianBlur stdDeviation="1" in="shadowOffsetOuter1" result="shadowBlurOuter1"/>
      <feComposite in="shadowBlurOuter1" in2="SourceAlpha" operator="out" result="shadowBlurOuter1"/>
      <feColorMatrix values="0 0 0 0 0 0 0 0 0 0 0 0 0 0 0 0 0 0 0.1 0" in="shadowBlurOuter1"/>
    </filter>
    <mask id="d" width="425" height="43" x="-1" y="-1">
      <rect width="425" height="43" x="-1" y="-1" fill="white"/>
      <use fill="black" xlink:href="#a"/>
    </mask>
    <rect id="b" width="423" height="254" rx="4"/>
    <filter id="e" width="200%" height="200%" x="-50%" y="-50%" filterUnits="objectBoundingBox">
      <feMorphology radius="1" operator="dilate" in="SourceAlpha" result="shadowSpreadOuter1"/>
      <feOffset dy="2" in="shadowSpreadOuter1" result="shadowOffsetOuter1"/>
      <feGaussianBlur stdDeviation="1" in="shadowOffsetOuter1" result="shadowBlurOuter1"/>
      <feComposite in="shadowBlurOuter1" in2="SourceAlpha" operator="out" result="shadowBlurOuter1"/>
      <feColorMatrix values="0 0 0 0 0 0 0 0 0 0 0 0 0 0 0 0 0 0 0.1 0" in="shadowBlurOuter1"/>
    </filter>
    <mask id="f" width="425" height="256" x="-1" y="-1">
      <rect width="425" height="256" x="-1" y="-1" fill="white"/>
      <use fill="black" xlink:href="#b"/>
    </mask>
  </defs>
  <g fill="none" fill-rule="evenodd" transform="translate(3 1)">
    <use fill="black" filter="url(#c)" xlink:href="#a"/>
    <use fill="#FFFFFF" xlink:href="#a"/>
    <use stroke="#D8D9DE" stroke-width="2" mask="url(#d)" xlink:href="#a"/>
    <path fill="#697782" stroke="#697782" d="M396.92742,20.5 L392.28629,15.8588693 L392,15.5725795 L392.57258,15 L392.858869,15.2862898 L397.5,19.9274205 L402.141131,15.2862898 L402.42742,15 L403,15.5725795 L402.71371,15.8588693 L398.07258,20.5 L402.71371,25.1411307 L403,25.4274205 L402.42742,26 L402.141131,25.7137102 L397.5,21.0725795 L392.858869,25.7137102 L392.57258,26 L392,25.4274205 L392.28629,25.1411307 L396.92742,20.5 Z" opacity=".5"/>
    <path fill="#697782" d="M28.1497999,22.6918239 L27.3819325,22.6918239 L27.109777,22.4293882 C28.0623213,21.3213265 28.6357919,19.8827902 28.6357919,18.3178959 C28.6357919,14.8284734 25.8073185,12 22.3178959,12 C18.8284734,12 16,14.8284734 16,18.3178959 C16,21.8073185 18.8284734,24.6357919 22.3178959,24.6357919 C23.8827902,24.6357919 25.3213265,24.0623213 26.4293882,23.109777 L26.6918239,23.3819325 L26.6918239,24.1497999 L31.5517439,29 L33,27.5517439 L28.1497999,22.6918239 L28.1497999,22.6918239 Z M22.3178959,22.6918239 C19.8976558,22.6918239 17.943968,20.7381361 17.943968,18.3178959 C17.943968,15.8976558 19.8976558,13.943968 22.3178959,13.943968 C24.7381361,13.943968 26.6918239,15.8976558 26.6918239,18.3178959 C26.6918239,20.7381361 24.7381361,22.6918239 22.3178959,22.6918239 L22.3178959,22.6918239 Z" opacity=".5"/>
    <text fill="#262626" font-family="'Open Sans', Open Sans, OpenSans, sans-serif" font-size="15">
      <tspan x="45" y="26">Gi</tspan>
    </text>
    <g transform="translate(0 49)">
      <use fill="black" filter="url(#e)" xlink:href="#b"/>
      <use fill="#FFFFFF" xlink:href="#b"/>
      <use stroke="#D8D9DE" stroke-width="2" mask="url(#f)" xlink:href="#b"/>
      <g transform="translate(16 13)">
        <rect width="15" height="15" y="2" fill="#16ABE9" opacity=".2" rx="1"/>
        <rect width="15" height="15" y="32" fill="#16ABE9" opacity=".2" rx="1"/>
        <rect width="15" height="15" y="62" fill="#16ABE9" opacity=".2" rx="1"/>
        <rect width="15" height="15" y="92" fill="#16ABE9" opacity=".2" rx="1"/>
        <rect width="15" height="15" y="122" fill="#16ABE9" opacity=".2" rx="1"/>
        <rect width="15" height="15" y="152" fill="#16ABE9" opacity=".2" rx="1"/>
        <rect width="15" height="15" y="182" fill="#16ABE9" opacity=".2" rx="1"/>
        <rect width="15" height="15" x="163" y="212" fill="#16ABE9" opacity=".2" rx="1"/>
        <text font-family="'Open Sans', Open Sans, OpenSans, sans-serif" font-size="14">
          <tspan x="1" y="15" fill="#24B3E4">Gi</tspan> <tspan x="14.733" y="15" fill="#262626">rl </tspan> <tspan x="27.626" y="15" fill="#323333" fill-opacity=".5">- Jamie XX</tspan>
        </text>
        <text font-family="'Open Sans', Open Sans, OpenSans, sans-serif" font-size="14">
          <tspan x="1" y="45" fill="#24B3E4">Gi</tspan> <tspan x="14.733" y="45" fill="#262626">rl </tspan> <tspan x="27.626" y="45" fill="#262626" fill-opacity=".5">- The Internet &amp; KAYTRANADA</tspan>
        </text>
        <text font-family="'Open Sans', Open Sans, OpenSans, sans-serif" font-size="14">
          <tspan x="1" y="75" fill="#24B3E4">Gi</tspan> <tspan x="14.733" y="75" fill="#262626">mme Shelter</tspan> <tspan x="98.453" y="75" fill="#262626" fill-opacity=".5"> - The Rolling Stones</tspan>
        </text>
        <text font-family="'Open Sans', Open Sans, OpenSans, sans-serif" font-size="14">
          <tspan x="1" y="105" fill="#24B3E4">Gi</tspan> <tspan x="14.733" y="105" fill="#262626">ve It Up</tspan> <tspan x="64.492" y="105" fill="#262626" fill-opacity=".5"> - J Dilla</tspan>
        </text>
        <text font-family="'Open Sans', Open Sans, OpenSans, sans-serif" font-size="14">
          <tspan x="1" y="135" fill="#24B3E4">Gi</tspan> <tspan x="14.733" y="135" fill="#262626">rl On Fire</tspan> <tspan x="75.095" y="135" fill="#262626" fill-opacity=".5"> - Alicia Keys</tspan>
        </text>
        <text font-family="'Open Sans', Open Sans, OpenSans, sans-serif" font-size="14">
          <tspan x="1" y="165" fill="#24B3E4">Gi</tspan> <tspan x="14.733" y="165" fill="#262626">orgio by Moroder</tspan> <tspan x="128.894" y="165" fill="#323333" fill-opacity=".5"> - Daft Punk</tspan>
        </text>
        <text font-family="'Open Sans', Open Sans, OpenSans, sans-serif" font-size="14">
          <tspan x="1" y="195" fill="#24B3E4">Gi</tspan> <tspan x="14.733" y="195" fill="#262626">ve It Away </tspan> <tspan x="83.947" y="195" fill="#262626" fill-opacity=".5">- Red Hot Chili Peppers</tspan>
        </text>
        <text font-family="'Open Sans', Open Sans, OpenSans, sans-serif" font-size="14">
          <tspan x="1" y="225" fill="#262626">This Song Is Not About a </tspan> <tspan x="163.531" y="225" fill="#24B3E4">Gi</tspan> <tspan x="177.265" y="225" fill="#262626">rl </tspan> <tspan x="190.157" y="225" fill="#262626" fill-opacity=".5">- Chet Faker</tspan>
        </text>
      </g>
      <g transform="translate(345 14)">
        <g opacity=".8" transform="translate(46 1)">
          <polygon stroke="#000000" stroke-opacity=".008" stroke-width=".5" points="0 0 16 0 16 16 0 16"/>
          <path fill="#FF5656" d="M7.99999952,14.2333327 L7.03333298,13.3533329 C3.59999984,10.2399991 1.33333325,8.18666598 1.33333325,5.66666633 C1.33333325,3.61333316 2.94666654,1.99999988 4.9999997,1.99999988 C6.15999948,1.99999988 7.27333276,2.53999981 7.99999952,3.39333323 C8.72666621,2.53999981 9.83999954,1.99999988 10.9999993,1.99999988 C13.0533325,1.99999988 14.6666658,3.61333316 14.6666658,5.66666633 C14.6666658,8.18666598 12.3999995,10.2399998 8.966666,13.3599998 L7.99999952,14.2333327 L7.99999952,14.2333327 Z"/>
        </g>
        <text fill="#323333" fill-opacity=".5" font-family="'Open Sans', Open Sans, OpenSans, sans-serif" font-size="12">
          <tspan x=".523" y="13">24,3 M</tspan>
        </text>
      </g>
      <g transform="translate(345 44)">
        <g opacity=".8" transform="translate(46 1)">
          <polygon stroke="#000000" stroke-opacity=".008" stroke-width=".5" points="0 0 16 0 16 16 0 16"/>
          <path fill="#FF5656" d="M7.99999952,14.2333327 L7.03333298,13.3533329 C3.59999984,10.2399991 1.33333325,8.18666598 1.33333325,5.66666633 C1.33333325,3.61333316 2.94666654,1.99999988 4.9999997,1.99999988 C6.15999948,1.99999988 7.27333276,2.53999981 7.99999952,3.39333323 C8.72666621,2.53999981 9.83999954,1.99999988 10.9999993,1.99999988 C13.0533325,1.99999988 14.6666658,3.61333316 14.6666658,5.66666633 C14.6666658,8.18666598 12.3999995,10.2399998 8.966666,13.3599998 L7.99999952,14.2333327 L7.99999952,14.2333327 Z"/>
        </g>
        <text fill="#323333" fill-opacity=".5" font-family="'Open Sans', Open Sans, OpenSans, sans-serif" font-size="12">
          <tspan x=".523" y="13">13,1 M</tspan>
        </text>
      </g>
      <g transform="translate(352 74)">
        <g opacity=".8" transform="translate(39 1)">
          <polygon stroke="#000000" stroke-opacity=".008" stroke-width=".5" points="0 0 16 0 16 16 0 16"/>
          <path fill="#FF5656" d="M7.99999952,14.2333327 L7.03333298,13.3533329 C3.59999984,10.2399991 1.33333325,8.18666598 1.33333325,5.66666633 C1.33333325,3.61333316 2.94666654,1.99999988 4.9999997,1.99999988 C6.15999948,1.99999988 7.27333276,2.53999981 7.99999952,3.39333323 C8.72666621,2.53999981 9.83999954,1.99999988 10.9999993,1.99999988 C13.0533325,1.99999988 14.6666658,3.61333316 14.6666658,5.66666633 C14.6666658,8.18666598 12.3999995,10.2399998 8.966666,13.3599998 L7.99999952,14.2333327 L7.99999952,14.2333327 Z"/>
        </g>
        <text fill="#323333" fill-opacity=".5" font-family="'Open Sans', Open Sans, OpenSans, sans-serif" font-size="12">
          <tspan x=".385" y="13">3,8 M</tspan>
        </text>
      </g>
      <g transform="translate(342 104)">
        <g opacity=".8" transform="translate(49 1)">
          <polygon stroke="#000000" stroke-opacity=".008" stroke-width=".5" points="0 0 16 0 16 16 0 16"/>
          <path fill="#FF5656" d="M7.99999952,14.2333327 L7.03333298,13.3533329 C3.59999984,10.2399991 1.33333325,8.18666598 1.33333325,5.66666633 C1.33333325,3.61333316 2.94666654,1.99999988 4.9999997,1.99999988 C6.15999948,1.99999988 7.27333276,2.53999981 7.99999952,3.39333323 C8.72666621,2.53999981 9.83999954,1.99999988 10.9999993,1.99999988 C13.0533325,1.99999988 14.6666658,3.61333316 14.6666658,5.66666633 C14.6666658,8.18666598 12.3999995,10.2399998 8.966666,13.3599998 L7.99999952,14.2333327 L7.99999952,14.2333327 Z"/>
        </g>
        <text fill="#323333" fill-opacity=".5" font-family="'Open Sans', Open Sans, OpenSans, sans-serif" font-size="12">
          <tspan x=".131" y="13">984,7 K</tspan>
        </text>
      </g>
      <g transform="translate(342 134)">
        <g opacity=".8" transform="translate(49 1)">
          <polygon stroke="#000000" stroke-opacity=".008" stroke-width=".5" points="0 0 16 0 16 16 0 16"/>
          <path fill="#FF5656" d="M7.99999952,14.2333327 L7.03333298,13.3533329 C3.59999984,10.2399991 1.33333325,8.18666598 1.33333325,5.66666633 C1.33333325,3.61333316 2.94666654,1.99999988 4.9999997,1.99999988 C6.15999948,1.99999988 7.27333276,2.53999981 7.99999952,3.39333323 C8.72666621,2.53999981 9.83999954,1.99999988 10.9999993,1.99999988 C13.0533325,1.99999988 14.6666658,3.61333316 14.6666658,5.66666633 C14.6666658,8.18666598 12.3999995,10.2399998 8.966666,13.3599998 L7.99999952,14.2333327 L7.99999952,14.2333327 Z"/>
        </g>
        <text fill="#323333" fill-opacity=".5" font-family="'Open Sans', Open Sans, OpenSans, sans-serif" font-size="12">
          <tspan x=".131" y="13">856,2 K</tspan>
        </text>
      </g>
      <g transform="translate(351 164)">
        <g opacity=".8" transform="translate(40 1)">
          <polygon stroke="#000000" stroke-opacity=".008" stroke-width=".5" points="0 0 16 0 16 16 0 16"/>
          <path fill="#FF5656" d="M7.99999952,14.2333327 L7.03333298,13.3533329 C3.59999984,10.2399991 1.33333325,8.18666598 1.33333325,5.66666633 C1.33333325,3.61333316 2.94666654,1.99999988 4.9999997,1.99999988 C6.15999948,1.99999988 7.27333276,2.53999981 7.99999952,3.39333323 C8.72666621,2.53999981 9.83999954,1.99999988 10.9999993,1.99999988 C13.0533325,1.99999988 14.6666658,3.61333316 14.6666658,5.66666633 C14.6666658,8.18666598 12.3999995,10.2399998 8.966666,13.3599998 L7.99999952,14.2333327 L7.99999952,14.2333327 Z"/>
        </g>
        <text fill="#323333" fill-opacity=".5" font-family="'Open Sans', Open Sans, OpenSans, sans-serif" font-size="12">
          <tspan x=".934" y="13">788 K</tspan>
        </text>
      </g>
      <g transform="translate(342 194)">
        <g opacity=".8" transform="translate(49 1)">
          <polygon stroke="#000000" stroke-opacity=".008" stroke-width=".5" points="0 0 16 0 16 16 0 16"/>
          <path fill="#FF5656" d="M7.99999952,14.2333327 L7.03333298,13.3533329 C3.59999984,10.2399991 1.33333325,8.18666598 1.33333325,5.66666633 C1.33333325,3.61333316 2.94666654,1.99999988 4.9999997,1.99999988 C6.15999948,1.99999988 7.27333276,2.53999981 7.99999952,3.39333323 C8.72666621,2.53999981 9.83999954,1.99999988 10.9999993,1.99999988 C13.0533325,1.99999988 14.6666658,3.61333316 14.6666658,5.66666633 C14.6666658,8.18666598 12.3999995,10.2399998 8.966666,13.3599998 L7.99999952,14.2333327 L7.99999952,14.2333327 Z"/>
        </g>
        <text fill="#323333" fill-opacity=".5" font-family="'Open Sans', Open Sans, OpenSans, sans-serif" font-size="12">
          <tspan x=".131" y="13">651,8 K</tspan>
        </text>
      </g>
      <g transform="translate(351 224)">
        <g opacity=".8" transform="translate(40 1)">
          <polygon stroke="#000000" stroke-opacity=".008" stroke-width=".5" points="0 0 16 0 16 16 0 16"/>
          <path fill="#FF5656" d="M7.99999952,14.2333327 L7.03333298,13.3533329 C3.59999984,10.2399991 1.33333325,8.18666598 1.33333325,5.66666633 C1.33333325,3.61333316 2.94666654,1.99999988 4.9999997,1.99999988 C6.15999948,1.99999988 7.27333276,2.53999981 7.99999952,3.39333323 C8.72666621,2.53999981 9.83999954,1.99999988 10.9999993,1.99999988 C13.0533325,1.99999988 14.6666658,3.61333316 14.6666658,5.66666633 C14.6666658,8.18666598 12.3999995,10.2399998 8.966666,13.3599998 L7.99999952,14.2333327 L7.99999952,14.2333327 Z"/>
        </g>
        <text fill="#323333" fill-opacity=".5" font-family="'Open Sans', Open Sans, OpenSans, sans-serif" font-size="12">
          <tspan x=".934" y="13">396 K</tspan>
        </text>
      </g>
    </g>
  </g>
</svg>
