<?xml version="1.0" encoding="UTF-8"?>
<svg width="620px" height="431px" viewBox="0 0 620 431" version="1.1" xmlns="http://www.w3.org/2000/svg" xmlns:xlink="http://www.w3.org/1999/xlink">
    <!-- Generator: Sketch 40 (33762) - http://www.bohemiancoding.com/sketch -->
    <title>Group 16</title>
    <desc>Created with Sketch.</desc>
    <defs></defs>
    <g id="Page-2" stroke="none" stroke-width="1" fill="none" fill-rule="evenodd">
        <g id="wordpress-landing" transform="translate(-587.000000, -50.000000)">
            <g id="header">
                <g id="header-background" transform="translate(0.000000, 50.000000)">
                    <g id="Group-16" transform="translate(573.000000, -39.000000)">
                        <g id="Group-12">
                            <path d="M209.822073,428.75458 C198.12237,436.50353 184.092274,441.016205 169.008187,441.016205 C128.134594,441.016205 95,407.881611 95,367.008018 C95,326.134425 128.134594,292.999831 169.008187,292.999831 C209.88178,292.999831 243.016374,326.134425 243.016374,367.008018 C243.016374,382.092105 238.503699,396.1222 230.754749,407.821903 L287.322715,464.389869 C288.496533,465.563688 288.494274,467.469083 287.325769,468.637588 L270.637758,485.325599 C269.465626,486.497731 267.566597,486.499104 266.390038,485.322546 L209.822073,428.75458 Z M169.008187,433.615386 C205.794421,433.615386 235.615555,403.794252 235.615555,367.008018 C235.615555,330.221784 205.794421,300.40065 169.008187,300.40065 C132.221953,300.40065 102.400819,330.221784 102.400819,367.008018 C102.400819,403.794252 132.221953,433.615386 169.008187,433.615386 Z M216.883939,425.350108 C216.497226,424.963395 216.496971,424.336666 216.886712,423.946925 L225.947094,414.886543 C226.335338,414.498299 226.970688,414.504181 227.350277,414.883769 L278.281558,465.815051 C278.668271,466.201763 278.668526,466.828492 278.278785,467.218234 L269.218403,476.278616 C268.830159,476.66686 268.194809,476.660978 267.81522,476.281389 L216.883939,425.350108 Z M169.008187,311.501878 C138.352992,311.501878 113.502047,336.352823 113.502047,367.008018 C113.502047,369.051698 115.158776,370.708427 117.202456,370.708427 C119.246136,370.708427 120.902865,369.051698 120.902865,367.008018 C120.902865,340.440182 142.440352,318.902696 169.008187,318.902696 C171.051867,318.902696 172.708596,317.245967 172.708596,315.202287 C172.708596,313.158607 171.051867,311.501878 169.008187,311.501878 Z" id="sbx-icon-search-14" fill="#21C1EA" opacity="0.217992071"></path>
                            <path d="M261.999518,253.999037 C270.835808,253.999037 277.999037,246.835808 277.999037,237.999518 C277.999037,229.163228 270.835808,222 261.999518,222 C253.163228,222 246,229.163228 246,237.999518 C246,246.835808 253.163228,253.999037 261.999518,253.999037 Z M261.999518,248.23921 C267.654744,248.23921 272.23921,243.654744 272.23921,237.999518 C272.23921,232.344293 267.654744,227.759827 261.999518,227.759827 C256.344293,227.759827 251.759827,232.344293 251.759827,237.999518 C251.759827,243.654744 256.344293,248.23921 261.999518,248.23921 Z M274.156998,254.802543 C272.875356,253.520901 272.878931,251.439374 274.159152,250.159152 C275.441984,248.87632 277.525114,248.879568 278.802543,250.156998 L285.040979,256.395434 C286.322621,257.677076 286.319046,259.758603 285.038825,261.038825 C283.755993,262.321657 281.672863,262.318409 280.395434,261.040979 L274.156998,254.802543 Z" id="sbx-icon-search-8" fill="#2B9EE7" opacity="0.339435634" transform="translate(266.000301, 242.000000) scale(-1, 1) translate(-266.000301, -242.000000) "></path>
                            <path d="M293.477932,120.535105 L275.5888,102.645974 C274.816456,101.873629 273.548134,101.866207 272.770435,102.643907 L264.644152,110.770189 C263.87162,111.542722 263.867378,112.809714 264.646219,113.588555 L282.535873,131.47821 L293.477932,120.535105 Z M295.551388,122.608561 L302.006511,129.063684 C302.785352,129.842525 302.78111,131.109517 302.008578,131.88205 L293.882295,140.008332 C293.104596,140.786032 291.836274,140.77861 291.063929,140.006266 L284.609329,133.551666 L295.551388,122.608561 Z M253.698035,101.940015 C245.684853,107.852612 235.778829,111.347307 225.056654,111.347307 C198.3858,111.347307 176.764802,89.7242422 176.764802,63.05084 C176.764802,36.3774378 198.3858,14.754373 225.056654,14.754373 C251.727507,14.754373 273.348506,36.3774378 273.348506,63.05084 C273.348506,73.7742035 269.854039,83.6813125 263.941843,91.6953253 L270.415364,98.1688466 L271.316403,97.2678072 C272.875734,95.7084764 275.407616,95.712184 276.964771,97.2693385 L306.936566,127.241133 C308.496742,128.80131 308.488922,131.338675 306.938097,132.889501 L294.889767,144.93783 C293.330437,146.497161 290.798554,146.493454 289.2414,144.936299 L259.269605,114.964504 C257.709429,113.404328 257.717248,110.866962 259.268074,109.316137 L260.171115,108.413095 L253.698035,101.940015 Z M255.650459,93.9248563 C247.796488,101.709472 236.988023,106.51766 225.056654,106.51766 C201.052886,106.51766 181.593987,87.056902 181.593987,63.05084 C181.593987,39.044778 201.052886,19.5840197 225.056654,19.5840197 C249.060422,19.5840197 268.519321,39.044778 268.519321,63.05084 C268.519321,74.9848501 263.710382,85.7955652 255.924784,93.6505318 L255.650453,93.9248622 Z M258.386904,99.8763912 L261.840112,96.4231841 L267.041188,101.62426 C267.427852,102.010925 267.422626,102.643058 267.034165,103.031519 L264.99524,105.070445 C264.604696,105.460988 263.970825,105.460312 263.587981,105.077467 L258.386904,99.8763912 Z M225.056654,99.2731903 C245.059794,99.2731903 261.275543,83.0558916 261.275543,63.05084 C261.275543,43.0457883 245.059794,26.8284897 225.056654,26.8284897 C205.053514,26.8284897 188.837765,43.0457883 188.837765,63.05084 C188.837765,83.0558916 205.053514,99.2731903 225.056654,99.2731903 Z M225.056654,95.0472494 C242.726094,95.0472494 257.050006,80.7219689 257.050006,63.05084 C257.050006,45.379711 242.726094,31.0544306 225.056654,31.0544306 C207.387213,31.0544306 193.063302,45.379711 193.063302,63.05084 C193.063302,80.7219689 207.387213,95.0472494 225.056654,95.0472494 Z" id="sbx-icon-search-19" fill="#22BFE9" opacity="0.21379431" transform="translate(242.434380, 80.430060) rotate(75.000000) translate(-242.434380, -80.430060) "></path>
                            <path d="M108.798252,176.618942 C102.447997,180.291069 95.0758059,182.392667 87.2127544,182.392667 C63.3639709,182.392667 44.030712,163.059637 44.030712,139.211135 C44.030712,115.362633 63.3639709,96.0296023 87.2127544,96.0296023 C111.061538,96.0296023 130.394797,115.362633 130.394797,139.211135 C130.394797,147.074007 128.29322,154.446036 124.621124,160.796169 L150.969185,187.14423 C152.918806,189.093851 152.909687,192.263929 150.96803,194.205587 L142.207719,202.965897 C140.257461,204.916156 137.097061,204.917751 135.146363,202.967053 L108.798252,176.618942 Z M87.2127544,178.074514 C108.67666,178.074514 126.076593,160.674787 126.076593,139.211135 C126.076593,117.747483 108.67666,100.347756 87.2127544,100.347756 C65.7488493,100.347756 48.3489162,117.747483 48.3489162,139.211135 C48.3489162,160.674787 65.7488493,178.074514 87.2127544,178.074514 Z M87.2127544,165.120054 C101.522024,165.120054 113.12198,153.520236 113.12198,139.211135 C113.12198,124.902034 101.522024,113.302215 87.2127544,113.302215 C72.9034843,113.302215 61.303529,124.902034 61.303529,139.211135 C61.303529,153.520236 72.9034843,165.120054 87.2127544,165.120054 Z M87.2127544,160.801901 C99.1371461,160.801901 108.803776,151.135386 108.803776,139.211135 C108.803776,127.286884 99.1371461,117.620369 87.2127544,117.620369 C75.2883627,117.620369 65.6217332,127.286884 65.6217332,139.211135 C65.6217332,151.135386 75.2883627,160.801901 87.2127544,160.801901 Z M112.978818,174.761419 L122.763554,164.976683 L145.284111,187.49724 C147.240327,189.453456 147.243192,192.622244 145.293639,194.571796 L142.573932,197.291504 C140.622978,199.242457 137.460061,199.242662 135.499375,197.281976 L112.978818,174.761419 Z" id="sbx-icon-search-16" fill="#21C9EB" opacity="0.208197295" transform="translate(98.229276, 150.229468) scale(-1, 1) rotate(-39.000000) translate(-98.229276, -150.229468) "></path>
                            <path d="M39.7552337,91.2940663 C36.4979438,93.9855843 32.320203,95.6027178 27.7647604,95.6027178 C17.3618679,95.6027178 8.92865726,87.1695072 8.92865726,76.7666147 C8.92865726,66.3637222 17.3618679,57.9305115 27.7647604,57.9305115 C38.1676529,57.9305115 46.6008635,66.3637222 46.6008635,76.7666147 C46.6008635,81.3220572 44.98373,85.499798 42.2922121,88.757088 L54.4074294,100.872305 C55.1055685,101.570444 55.1084844,102.699436 54.4030329,103.404887 C53.7024657,104.105454 52.5656847,104.104517 51.870451,103.409284 L39.7552337,91.2940663 Z M27.7647604,92.0148886 C36.1861496,92.0148886 43.0130344,85.1880039 43.0130344,76.7666147 C43.0130344,68.3452255 36.1861496,61.5183407 27.7647604,61.5183407 C19.3433712,61.5183407 12.5164864,68.3452255 12.5164864,76.7666147 C12.5164864,85.1880039 19.3433712,92.0148886 27.7647604,92.0148886 Z" id="sbx-icon-search-13" fill="#21C6EA" opacity="0.226270989" transform="translate(31.930118, 80.930512) rotate(56.000000) translate(-31.930118, -80.930512) "></path>
                        </g>
                        <g id="Group-12" transform="translate(330.000000, 0.000000)">
                            <path d="M209.822073,428.75458 C198.12237,436.50353 184.092274,441.016205 169.008187,441.016205 C128.134594,441.016205 95,407.881611 95,367.008018 C95,326.134425 128.134594,292.999831 169.008187,292.999831 C209.88178,292.999831 243.016374,326.134425 243.016374,367.008018 C243.016374,382.092105 238.503699,396.1222 230.754749,407.821903 L287.322715,464.389869 C288.496533,465.563688 288.494274,467.469083 287.325769,468.637588 L270.637758,485.325599 C269.465626,486.497731 267.566597,486.499104 266.390038,485.322546 L209.822073,428.75458 Z M169.008187,433.615386 C205.794421,433.615386 235.615555,403.794252 235.615555,367.008018 C235.615555,330.221784 205.794421,300.40065 169.008187,300.40065 C132.221953,300.40065 102.400819,330.221784 102.400819,367.008018 C102.400819,403.794252 132.221953,433.615386 169.008187,433.615386 Z M216.883939,425.350108 C216.497226,424.963395 216.496971,424.336666 216.886712,423.946925 L225.947094,414.886543 C226.335338,414.498299 226.970688,414.504181 227.350277,414.883769 L278.281558,465.815051 C278.668271,466.201763 278.668526,466.828492 278.278785,467.218234 L269.218403,476.278616 C268.830159,476.66686 268.194809,476.660978 267.81522,476.281389 L216.883939,425.350108 Z M169.008187,311.501878 C138.352992,311.501878 113.502047,336.352823 113.502047,367.008018 C113.502047,369.051698 115.158776,370.708427 117.202456,370.708427 C119.246136,370.708427 120.902865,369.051698 120.902865,367.008018 C120.902865,340.440182 142.440352,318.902696 169.008187,318.902696 C171.051867,318.902696 172.708596,317.245967 172.708596,315.202287 C172.708596,313.158607 171.051867,311.501878 169.008187,311.501878 Z" id="sbx-icon-search-14" fill="#21C1EA" opacity="0.217992071"></path>
                            <path d="M261.999518,253.999037 C270.835808,253.999037 277.999037,246.835808 277.999037,237.999518 C277.999037,229.163228 270.835808,222 261.999518,222 C253.163228,222 246,229.163228 246,237.999518 C246,246.835808 253.163228,253.999037 261.999518,253.999037 Z M261.999518,248.23921 C267.654744,248.23921 272.23921,243.654744 272.23921,237.999518 C272.23921,232.344293 267.654744,227.759827 261.999518,227.759827 C256.344293,227.759827 251.759827,232.344293 251.759827,237.999518 C251.759827,243.654744 256.344293,248.23921 261.999518,248.23921 Z M274.156998,254.802543 C272.875356,253.520901 272.878931,251.439374 274.159152,250.159152 C275.441984,248.87632 277.525114,248.879568 278.802543,250.156998 L285.040979,256.395434 C286.322621,257.677076 286.319046,259.758603 285.038825,261.038825 C283.755993,262.321657 281.672863,262.318409 280.395434,261.040979 L274.156998,254.802543 Z" id="sbx-icon-search-8" fill="#2B9EE7" opacity="0.339435634" transform="translate(266.000301, 242.000000) scale(-1, 1) translate(-266.000301, -242.000000) "></path>
                            <path d="M293.477932,120.535105 L275.5888,102.645974 C274.816456,101.873629 273.548134,101.866207 272.770435,102.643907 L264.644152,110.770189 C263.87162,111.542722 263.867378,112.809714 264.646219,113.588555 L282.535873,131.47821 L293.477932,120.535105 Z M295.551388,122.608561 L302.006511,129.063684 C302.785352,129.842525 302.78111,131.109517 302.008578,131.88205 L293.882295,140.008332 C293.104596,140.786032 291.836274,140.77861 291.063929,140.006266 L284.609329,133.551666 L295.551388,122.608561 Z M253.698035,101.940015 C245.684853,107.852612 235.778829,111.347307 225.056654,111.347307 C198.3858,111.347307 176.764802,89.7242422 176.764802,63.05084 C176.764802,36.3774378 198.3858,14.754373 225.056654,14.754373 C251.727507,14.754373 273.348506,36.3774378 273.348506,63.05084 C273.348506,73.7742035 269.854039,83.6813125 263.941843,91.6953253 L270.415364,98.1688466 L271.316403,97.2678072 C272.875734,95.7084764 275.407616,95.712184 276.964771,97.2693385 L306.936566,127.241133 C308.496742,128.80131 308.488922,131.338675 306.938097,132.889501 L294.889767,144.93783 C293.330437,146.497161 290.798554,146.493454 289.2414,144.936299 L259.269605,114.964504 C257.709429,113.404328 257.717248,110.866962 259.268074,109.316137 L260.171115,108.413095 L253.698035,101.940015 Z M255.650459,93.9248563 C247.796488,101.709472 236.988023,106.51766 225.056654,106.51766 C201.052886,106.51766 181.593987,87.056902 181.593987,63.05084 C181.593987,39.044778 201.052886,19.5840197 225.056654,19.5840197 C249.060422,19.5840197 268.519321,39.044778 268.519321,63.05084 C268.519321,74.9848501 263.710382,85.7955652 255.924784,93.6505318 L255.650453,93.9248622 Z M258.386904,99.8763912 L261.840112,96.4231841 L267.041188,101.62426 C267.427852,102.010925 267.422626,102.643058 267.034165,103.031519 L264.99524,105.070445 C264.604696,105.460988 263.970825,105.460312 263.587981,105.077467 L258.386904,99.8763912 Z M225.056654,99.2731903 C245.059794,99.2731903 261.275543,83.0558916 261.275543,63.05084 C261.275543,43.0457883 245.059794,26.8284897 225.056654,26.8284897 C205.053514,26.8284897 188.837765,43.0457883 188.837765,63.05084 C188.837765,83.0558916 205.053514,99.2731903 225.056654,99.2731903 Z M225.056654,95.0472494 C242.726094,95.0472494 257.050006,80.7219689 257.050006,63.05084 C257.050006,45.379711 242.726094,31.0544306 225.056654,31.0544306 C207.387213,31.0544306 193.063302,45.379711 193.063302,63.05084 C193.063302,80.7219689 207.387213,95.0472494 225.056654,95.0472494 Z" id="sbx-icon-search-19" fill="#22BFE9" opacity="0.21379431" transform="translate(242.434380, 80.430060) rotate(75.000000) translate(-242.434380, -80.430060) "></path>
                            <path d="M108.798252,176.618942 C102.447997,180.291069 95.0758059,182.392667 87.2127544,182.392667 C63.3639709,182.392667 44.030712,163.059637 44.030712,139.211135 C44.030712,115.362633 63.3639709,96.0296023 87.2127544,96.0296023 C111.061538,96.0296023 130.394797,115.362633 130.394797,139.211135 C130.394797,147.074007 128.29322,154.446036 124.621124,160.796169 L150.969185,187.14423 C152.918806,189.093851 152.909687,192.263929 150.96803,194.205587 L142.207719,202.965897 C140.257461,204.916156 137.097061,204.917751 135.146363,202.967053 L108.798252,176.618942 Z M87.2127544,178.074514 C108.67666,178.074514 126.076593,160.674787 126.076593,139.211135 C126.076593,117.747483 108.67666,100.347756 87.2127544,100.347756 C65.7488493,100.347756 48.3489162,117.747483 48.3489162,139.211135 C48.3489162,160.674787 65.7488493,178.074514 87.2127544,178.074514 Z M87.2127544,165.120054 C101.522024,165.120054 113.12198,153.520236 113.12198,139.211135 C113.12198,124.902034 101.522024,113.302215 87.2127544,113.302215 C72.9034843,113.302215 61.303529,124.902034 61.303529,139.211135 C61.303529,153.520236 72.9034843,165.120054 87.2127544,165.120054 Z M87.2127544,160.801901 C99.1371461,160.801901 108.803776,151.135386 108.803776,139.211135 C108.803776,127.286884 99.1371461,117.620369 87.2127544,117.620369 C75.2883627,117.620369 65.6217332,127.286884 65.6217332,139.211135 C65.6217332,151.135386 75.2883627,160.801901 87.2127544,160.801901 Z M112.978818,174.761419 L122.763554,164.976683 L145.284111,187.49724 C147.240327,189.453456 147.243192,192.622244 145.293639,194.571796 L142.573932,197.291504 C140.622978,199.242457 137.460061,199.242662 135.499375,197.281976 L112.978818,174.761419 Z" id="sbx-icon-search-16" fill="#21C9EB" opacity="0.208197295" transform="translate(98.229276, 150.229468) scale(-1, 1) rotate(-39.000000) translate(-98.229276, -150.229468) "></path>
                            <path d="M39.7552337,91.2940663 C36.4979438,93.9855843 32.320203,95.6027178 27.7647604,95.6027178 C17.3618679,95.6027178 8.92865726,87.1695072 8.92865726,76.7666147 C8.92865726,66.3637222 17.3618679,57.9305115 27.7647604,57.9305115 C38.1676529,57.9305115 46.6008635,66.3637222 46.6008635,76.7666147 C46.6008635,81.3220572 44.98373,85.499798 42.2922121,88.757088 L54.4074294,100.872305 C55.1055685,101.570444 55.1084844,102.699436 54.4030329,103.404887 C53.7024657,104.105454 52.5656847,104.104517 51.870451,103.409284 L39.7552337,91.2940663 Z M27.7647604,92.0148886 C36.1861496,92.0148886 43.0130344,85.1880039 43.0130344,76.7666147 C43.0130344,68.3452255 36.1861496,61.5183407 27.7647604,61.5183407 C19.3433712,61.5183407 12.5164864,68.3452255 12.5164864,76.7666147 C12.5164864,85.1880039 19.3433712,92.0148886 27.7647604,92.0148886 Z" id="sbx-icon-search-13" fill="#21C6EA" opacity="0.226270989" transform="translate(31.930118, 80.930512) rotate(56.000000) translate(-31.930118, -80.930512) "></path>
                        </g>
                    </g>
                </g>
            </g>
        </g>
    </g>
</svg>