<svg width="40" height="40" viewBox="0 0 40 40" xmlns="http://www.w3.org/2000/svg"><path d="M26.424 31.143a2 2 0 0 1 .004-2.824l1.12-1.12a2 2 0 0 1 2.824-.005l-3.948 3.948zm5.01-2.886l7.02 7.018a2 2 0 0 1 0 2.83l-1.12 1.12a2 2 0 0 1-2.83 0l-7.018-7.02 3.95-3.948zm-16.012 2.587c8.517 0 15.422-6.905 15.422-15.422S23.94 0 15.422 0 0 6.905 0 15.422s6.905 15.422 15.422 15.422zm0-3.856c6.388 0 11.566-5.178 11.566-11.566 0-6.388-5.178-11.567-11.566-11.567-6.388 0-11.567 5.18-11.567 11.567 0 6.388 5.18 11.566 11.567 11.566z" fill="#000" fill-rule="evenodd"/></svg>